<?xml version="1.0" encoding="utf-8"?><svg viewBox="0 0 166 57" xmlns="http://www.w3.org/2000/svg" xmlns:xlink="http://www.w3.org/1999/xlink"><style>:root>svg{display:none}:root>svg:target{display:block}</style><svg fill="none" viewBox="0 0 57 57" id="about-features1-icon" xmlns="http://www.w3.org/2000/svg"><path d="M7.495 24.486h13.483c2.597 0 4.709-1.797 4.709-4.006 0-1.63-1.188-3.093-2.916-3.704-.133-1.965-2.047-3.529-4.382-3.529-.234 0-.466.016-.696.047-1.132-1.376-2.998-2.209-5.02-2.209-3.37 0-6.11 2.31-6.11 5.15 0 .105.003.21.01.316-2.158.365-3.788 1.988-3.788 3.93 0 2.208 2.113 4.005 4.709 4.005zm0-6.206h.162a.902.902 0 00.854-1.196 2.63 2.63 0 01-.142-.85c0-1.843 1.93-3.343 4.304-3.343 1.651 0 3.133.722 3.868 1.883a.904.904 0 00.996.39c.274-.074.561-.111.854-.111 1.424 0 2.582.87 2.582 1.94 0 .095-.01.19-.028.284a.903.903 0 00.72 1.067c1.285.241 2.218 1.14 2.218 2.137 0 1.192-1.329 2.2-2.902 2.2L7.495 22.68c-1.573 0-2.902-1.007-2.902-2.2 0-1.192 1.329-2.2 2.902-2.2zM26.98 33.422h-1.556v-1.806h1.556v1.806zm3.285 0H28.71v-1.806h1.556v1.806zm-3.285 4.119h-1.556v-1.807h1.556v1.806zm3.285 0H28.71v-1.807h1.556v1.806zm-3.285 4.117h-1.556v-1.806h1.556v1.806zm3.285 0H28.71v-1.806h1.556v1.806zm-3.285 4.118h-1.556V43.97h1.556v1.806zm3.285 0H28.71V43.97h1.556v1.806zm-3.285 4.119h-1.556v-1.807h1.556v1.807zm3.285 0H28.71v-1.807h1.556v1.807zm24.831 4.523h-4.77v-5.52c2.03-1.147 3.23-2.607 3.55-4.349.434-2.38-.741-5.106-3.594-8.334a.906.906 0 00-.686-.316.899.899 0 00-.686.316c-2.853 3.228-4.028 5.954-3.593 8.334.3 1.642 1.38 3.034 3.203 4.15v5.719h-7.705v-20.68l-7.162-3.661v-3.818a.904.904 0 00-1.155-.868l-9.81 2.845a.903.903 0 00-.652.868v4.52l-7.163 2.195v18.598H9.547v-5.52c2.03-1.147 3.23-2.607 3.549-4.35.435-2.379-.74-5.105-3.594-8.333a.897.897 0 00-.685-.316h-.001a.899.899 0 00-.686.316c-2.852 3.228-4.028 5.954-3.593 8.334.3 1.642 1.38 3.034 3.204 4.15v5.719H.903a.903.903 0 100 1.807h54.195a.903.903 0 10-.001-1.807zm-8.003-10.194c-.293-1.602.548-3.626 2.502-6.026 1.954 2.4 2.795 4.425 2.502 6.026-.175.957-.763 1.792-1.772 2.536v-1.335a.903.903 0 00-1.807 0v1.065c-.797-.676-1.271-1.424-1.425-2.265zm-40.78 0c-.293-1.602.549-3.626 2.502-6.026 1.954 2.4 2.796 4.425 2.502 6.026-.175.956-.762 1.792-1.771 2.536v-1.335a.903.903 0 10-1.807 0v1.065c-.798-.676-1.272-1.424-1.426-2.265zm32.697-9.381v19.574h-5.357V32.104l5.357 2.739zM23.844 29.78l8.005-2.321v26.957h-8.005V29.78zm-7.163 7.373l5.356-1.643v18.907h-5.356V37.154zm23.482-22.361a4.077 4.077 0 004.073-4.073 4.077 4.077 0 00-4.073-4.072 4.077 4.077 0 00-4.072 4.072 4.077 4.077 0 004.072 4.073zm0-6.339a2.269 2.269 0 012.267 2.267 2.268 2.268 0 01-2.267 2.265 2.268 2.268 0 01-2.266-2.265 2.268 2.268 0 012.266-2.267zM39.26 3.7V1.128a.903.903 0 111.807 0v2.571a.903.903 0 01-1.807 0zm-5.955.253a.902.902 0 111.384-1.16l1.653 1.97a.902.902 0 11-1.384 1.161l-1.653-1.97zm-3.479 4.945a.904.904 0 011.047-.732l2.532.446a.904.904 0 01-.313 1.78l-2.533-.447a.904.904 0 01-.733-1.047zm5.039 4.882a.902.902 0 01-.33 1.233l-2.227 1.286a.902.902 0 11-.903-1.565l2.226-1.285a.903.903 0 011.234.33zm3.206 2.69c.468.17.71.688.54 1.157l-.88 2.417a.903.903 0 01-1.698-.618l.88-2.416c.17-.47.69-.71 1.158-.54zm5.341.54l.88 2.416a.903.903 0 11-1.697.618l-.88-2.417a.903.903 0 011.697-.617zm5.51-2.275a.902.902 0 11-.904 1.565l-2.228-1.286a.902.902 0 11.904-1.564l2.227 1.285zM46.92 8.612l2.533-.446a.903.903 0 01.314 1.779l-2.533.446a.904.904 0 01-.314-1.779zm-2.825-2.579a.902.902 0 01-.112-1.272l1.653-1.97a.902.902 0 111.384 1.16l-1.653 1.97a.901.901 0 01-1.272.112z" fill="#ED2266"/></svg><svg fill="none" viewBox="0 0 56 56" id="about-features2-icon" xmlns="http://www.w3.org/2000/svg"><path d="M18.16 29A14.26 14.26 0 103.89 14.74 14.28 14.28 0 0018.16 29zm0-26.53A12.26 12.26 0 115.89 14.74 12.282 12.282 0 0118.16 2.47zM1 56h34a1 1 0 001-1V45a11 11 0 00-11-11H11A11 11 0 000 45v10a1 1 0 001 1zm1-11a8.999 8.999 0 019-9h14a8.999 8.999 0 019 9v9H2v-9zM46 1v8a1 1 0 001 1h8a1 1 0 001-1V1a1 1 0 00-1-1h-8a1 1 0 00-1 1zm2 1h6v6h-6V2zm-1 54h8a1 1 0 001-1v-8a1 1 0 00-1-1h-8a1 1 0 00-1 1v8a1 1 0 001 1zm1-8h6v6h-6v-6zm8-24a1 1 0 00-1-1h-8a1 1 0 00-1 1v8a1 1 0 001 1h8a1 1 0 001-1v-8zm-2 7h-6v-6h6v6zm-9-3a1 1 0 00-1-1h-9.38L44.89 6.45a1.001 1.001 0 10-1.79-.89l-11 22a.94.94 0 000 .84l11 22a1 1 0 001.79-.89L34.62 29H44a1 1 0 001-1z" fill="#ED2266"/></svg><svg fill="none" viewBox="0 0 62 56" id="about-features3-icon" xmlns="http://www.w3.org/2000/svg"><path d="M7.35 30.28h7.28c.544 0 1.088-.545 1.088-1.09 0-.543-.544-1.088-1.088-1.088H7.35c-.545 0-1.09.545-1.09 1.089 0 .574.527 1.089 1.09 1.089zm0-19.053h24.359c.576 0 .952-.555.952-1.088 0-.51-.407-1.089-.952-1.089H7.349c-.625 0-1.225.35-1.225 1.02 0 .59.644 1.157 1.225 1.157zm0 5.376h17.622c.577 0 .953-.556.953-1.089 0-.51-.407-1.088-.953-1.088H7.35c-.625 0-1.225.348-1.225 1.02 0 .59.644 1.157 1.225 1.157zm33.68.68c-6.062 0-11.368 5.15-11.271 11.296.096 6.066 5.117 11.22 11.272 11.227 6.132.008 11.295-5.047 11.295-11.227 0-6.134-5.161-11.296-11.295-11.296zm0 20.277c-4.934 0-9.003-4.11-9.074-8.982-.072-5.02 4.13-9.107 9.075-9.09 4.94.018 8.982 4.223 8.982 9.09 0 4.91-4.075 8.982-8.982 8.982zm19.938 10.547l-7.962-8.505c2.802-2.996 4.335-7.003 4.349-11.091.023-7.459-5.384-14.313-12.718-15.923V3.947C44.637 1.798 42.843 0 40.69 0H4.014C1.867 0 0 1.787 0 3.947v48.107C0 54.202 1.793 56 3.947 56h36.675c2.148 0 3.947-1.793 3.947-3.947v-7.552c2.45-.544 4.763-1.701 6.736-3.266l7.961 8.437c.436.435 1.084.43 1.565.068.457-.228.456-1.313.136-1.633zm-18.576 3.878c0 1.006-.77 1.636-1.702 1.77H4.016a1.678 1.678 0 01-1.701-1.702V3.946c0-.976.742-1.7 1.7-1.7H40.69c.962 0 1.702.837 1.702 1.768v8.302c-.409-.068-.885-.068-1.361-.068-8.934 0-16.33 7.396-16.33 16.33 0 8.934 7.396 16.33 16.33 16.33.476 0 .885 0 1.36-.068v7.145zm-1.361-9.322c-7.68 0-14.064-6.491-14.085-14.084-.021-7.655 6.431-14.137 14.085-14.154 7.618-.016 14.153 6.474 14.153 14.153 0 7.74-6.443 14.085-14.153 14.085zM24.7 41.371H7.212c-.604 0-1.02.424-1.02 1.02 0 .591.43 1.021 1.02 1.021H24.7c.605 0 1.02-.425 1.02-1.02 0-.591-.43-1.021-1.02-1.021zm-4.832 5.647H7.213c-.604 0-1.02.425-1.02 1.02 0 .591.43 1.022 1.02 1.022h12.656c.604 0 1.02-.425 1.02-1.021 0-.59-.43-1.02-1.02-1.02zm27.218-23.475c-.468-.467-1.155-.275-1.565.136l-5.648 6.873-3.879-2.042c-.522-.26-1.231-.055-1.496.476-.262.523-.055 1.232.476 1.497l4.695 2.45c.414.276 1.1.051 1.36-.34l6.193-7.621c.285-.57.366-.927-.136-1.43v.001z" fill="#ED2266"/></svg><svg fill="none" viewBox="0 0 17 13" id="email-icon" xmlns="http://www.w3.org/2000/svg"><path d="M14.125.1h-11.2a2.4 2.4 0 00-2.4 2.4v8a2.4 2.4 0 002.4 2.4h11.2a2.4 2.4 0 002.4-2.4v-8a2.4 2.4 0 00-2.4-2.4zm-11.2 1.6h11.2a.8.8 0 01.8.8l-6.4 3.904-6.4-3.904a.8.8 0 01.8-.8zm12 8.8a.8.8 0 01-.8.8h-11.2a.8.8 0 01-.8-.8V4.325L8.11 7.98a.8.8 0 00.8 0l6.016-3.656V10.5z" fill="#ED2266"/></svg><svg fill="none" viewBox="0 0 53 22" id="isart-icon" xmlns="http://www.w3.org/2000/svg"><g clip-path="url(#ea)" fill-rule="evenodd" clip-rule="evenodd" fill="#614E51"><path d="M.616 18.19c.01-.086.029-.173.048-.25l.058-.318c.01-.048.01-.105.029-.163.01-.048.019-.087.029-.125.01-.087.028-.174.038-.27.01-.086.039-.173.048-.24 0-.058.087-.549.106-.587 0-.077.116-.8.135-.838.01-.134.057-.288.067-.423.01-.154.068-.356.087-.51.01-.135.048-.308.067-.443.01-.077.02-.135.039-.221.01-.058.029-.116.029-.193.028-.096.038-.279.067-.356.01-.144.048-.289.067-.433.01-.058.02-.096.03-.164.009-.048 0-.086.028-.106 0-.125.048-.25.048-.356.03-.163.068-.337.087-.5l.058-.337c.01-.038.019-.125.028-.164.01-.057.02-.077.02-.134.01-.087.029-.174.048-.26.01-.068.038-.173.038-.231a3.05 3.05 0 00.048-.289c.01-.192.087-.385.087-.587.02-.048.048-.212.048-.26a3.05 3.05 0 00.048-.289l.087-.529c.01-.038.01-.048.01-.087 0-.019 0-.019.01-.038l.009-.02c0-.144.048-.317.067-.452 0-.057.048-.337.068-.365 0-.126.038-.174.038-.29.01-.047.048-.22.048-.278 0-.068.02-.096.03-.164l.076-.404c0-.125.02-.183.039-.299.01-.038.038-.22.048-.269.01-.087.029-.144.038-.24.01-.068.087-.607.116-.636 0-.086.01-.106.029-.183.01-.067.048-.404.077-.433 0-.106.019-.183.038-.289.02-.096.02-.163.048-.24l.106-.606c0-.078.087-.597.106-.626 0-.087.077-.549.106-.606 0-.068.048-.366.067-.405 0-.086.03-.24.048-.327 0-.058.126-.77.135-.808 0-.135.048-.299.068-.433 0-.077.01-.058.019-.116H24.61l-.096.635c-.02.096.01.039-.039.077l.01.048c-.029.145-.106.78-.154.847.01.087-.077.664-.116.722.01.096-.077.578-.105.693l-.058.327-.183 1.001c.01.068-.077.597-.106.645.01.144-.048.366-.077.52l-.087.51c-.01.02-.01.02-.01.038l-.009.03c.01.076-.01.26-.058.317.01.106-.038.308-.057.414-.02.115-.097.673-.135.722.01.086-.058.548-.106.606.01.048-.038.443-.087.5.02.125-.096.597-.115.77-.029.106-.039.222-.058.328l-.067.336c.01.048-.048.54-.106.616.02.077-.01.26-.058.318.01.087-.019.183-.029.28l-.105.528c.01.068-.02.29-.058.337.01.097-.039.433-.087.5.01.097-.02.203-.038.3-.01.066-.03.24-.068.288.01.058 0 .106-.01.163 0 .03-.01.058-.019.087-.01.058 0 .029-.028.067.01.068 0 .106-.01.164 0 .02-.01.058-.01.077-.01.058 0 .029-.029.068l-.057.452c-.039.115.038-.096-.01.029 0 0-.01.019-.01.01 0 0 0 .009-.01.009.01.058 0 .106-.009.164l-.038.144c.019.077-.049.481-.087.539.01.096-.058.548-.106.606.01.096-.038.453-.087.51.01.077-.01.25-.048.308.01.087-.019.193-.038.29l-.068.423c-.01.067-.048.336-.077.394.02.096-.019.221-.038.327-.02.097-.02.231-.067.299.01.086-.02.183-.03.27-.009.076-.018.192-.057.24.02.115-.048.356-.067.481-.02.125-.02.356-.087.443.01.096-.039.452-.087.51.01.086-.067.568-.106.616.01.115-.057.433-.077.568-.019.144.01.163-.134.173H2.753v-.01c-.578 0-1.155 0-1.723.01H0c.01-.077.029-.164.048-.25l.077-.5c.01-.04.029-.213.048-.232 0-.058.068-.5.087-.53 0-.067.02-.163.029-.22.212-1.233.048-.164.298-1.79l.029.028zm4.389 1.675h3.253c1.01-4.976 2.358-12.906 3.253-18.113H8.287c.038 1.145-3.128 17.256-3.273 18.123l-.01-.01zm8.142-5.265c-.029.068-.039.193-.048.28-.01.086-.048.192-.048.288 0 .058-.03.135-.039.193-.01.067-.029.154-.038.23a2.09 2.09 0 00-.068.395c-.029.039-.106.53-.106.616l-.105.54c-.02.144-.068.26-.049.442.03.289.28.471.587.423.231-.038.212-.057.366-.144.058-.096.289-.289.27-.443.038-.057.106-.5.115-.568.03-.125.106-.51.097-.606l.01-.029c0-.01.076-.23.057-.365l.029-.097c.01-.029.01-.067.019-.106.01-.067.038-.144.02-.211.009-.02.009 0 .018-.039l.02-.086c.01-.068.01-.068.01-.126.047-.057.067-.317.086-.413.02-.125.087-.395.077-.5l.067-.29c.02-.105.048-.211.039-.308.029-.038.029-.096.019-.154.087-.134-.048-.654-.096-.798-.048-.135-.299-.54-.376-.578-.019-.048-.23-.337-.279-.366-.019-.057 0-.01-.038-.057l-.27-.337-.067-.106c-.087-.106-.49-.635-.53-.645-.019-.067-.182-.26-.24-.327-.048-.058-.212-.289-.25-.308-.02-.039-.25-.366-.289-.385-.048-.116-.135-.222-.202-.337a1.583 1.583 0 01-.096-.183c-.02-.048-.049-.144-.077-.183-.039-.221-.058-.327-.049-.568l.087-.615.145-.809c.028-.135.105-.481.086-.597.048-.067.087-.375.087-.471.038-.048.115-.54.106-.607.067-.106.096-.558.144-.721.02-.135.096-.434.087-.549.019-.02.01 0 .019-.039l.038-.163c.02-.068.048-.145.039-.212.029-.038.02-.02.038-.077.01-.029.02-.048.03-.077.018-.058.038-.096.038-.164.048-.048.106-.211.134-.288l.154-.289c.049-.029.097-.106.135-.154.048-.067.087-.096.145-.144.048-.039.317-.222.327-.241.086-.029.183-.096.279-.135.096-.038.183-.077.289-.106.221-.067.414-.096.654-.115.684-.02 1.386 0 2.079 0 .664 0 1.29.058 1.646.443.077.077.24.298.289.433.038.115.086.202.115.327a1.921 1.921 0 01.02.664c-.01.077-.03.173-.03.26-.01.087-.038.192-.048.279a1.48 1.48 0 01-.057.308c0 .067-.03.173-.039.25-.02.096-.038.193-.048.28a2.47 2.47 0 00-.048.288c-.01.067-.029.144-.048.231-.02.096-.039.183-.039.28-.029.086-.038.201-.058.307-.019.125-.038.222-.057.337 0 .067-.039.23-.048.289-.01.057-.01.077-.02.144-.01.048-.029.106-.029.173a2.46 2.46 0 01-.048.231 1.31 1.31 0 00-.038.26c-.01.058-.029.135-.048.212l-2.57.01c0-.183.115-.51.106-.684.048-.058.096-.423.086-.51.02-.029.01 0 .02-.048l.077-.51c.057-.067.106-.616.144-.741.02-.135.077-.337.068-.462.038-.058.038-.202.067-.27l.01-.096.028-.125c.077-.375-.067-.703-.462-.703-.317 0-.644.193-.74.462-.02.049-.02.077-.04.116-.018.096-.047.23-.047.327-.02.087-.03.145-.048.24-.02.097-.039.174-.039.28l-.038.144-.03.173c-.019.126-.047.241-.057.357-.029.019-.02.077-.029.125-.01.067-.02.086-.029.144-.01.087-.048.212-.048.298-.02.077-.029.145-.048.241-.02.096-.039.173-.039.28-.028.038-.067.317-.077.413-.01.067-.028.337-.01.404.02.058-.018.02.03.048-.048.135.125.472.202.607.048.077-.01.029.067.067-.01.048-.01.01 0 .048 0 .02.02.039.029.058l.462.626c.039.028-.029 0 .039.028 0 .058.23.328.279.366l.346.404c0 .01-.02.01.029.077l.433.54.24.298c.068.086.04.067.097.096.01.058.144.221.183.289.077.115.144.279.202.308-.02.057-.01.019.02.086.018.03.018.039.038.087l.125.356c.038.144.01.154.057.193-.048.115-.019.288-.019.413-.01.077-.02.097-.02.193a4.55 4.55 0 00-.086.577c-.029.03 0-.01-.019.039 0 .01-.01.067-.01.067-.01.068-.019.106-.019.164a3.752 3.752 0 00-.086.49c-.02.078-.039.193-.049.29-.01.105-.048.202-.048.327-.019.019-.019.067-.029.106-.01.057-.01.086-.019.134-.019.097-.029.203-.048.29 0 .095-.048.23-.048.346a1.07 1.07 0 00-.048.279c-.02.134-.058.27-.067.414-.02.048-.068.336-.068.413-.029.02-.029.096-.029.135-.01.067-.019.096-.029.164-.019.115-.048.24-.057.356a1.33 1.33 0 00-.049.211 1.903 1.903 0 00-.057.25l-.164.463c-.087.212-.192.337-.23.433-.02.01-.136.173-.164.212-.039.048-.049.057-.087.105l-.106.116c-.077.106-.385.327-.53.385-.076.029-.144.048-.22.096-.087.01-.424.125-.732.135l-.857.02c-.163 0-.27.018-.414.018H11.81c-.106 0-.125-.019-.221-.019-.048 0-.183-.029-.24-.038-.04-.01-.068-.01-.117-.02-.048-.01-.067-.028-.125-.028-.336-.077-.433-.193-.606-.318-.029-.02-.01-.01-.029-.02-.029-.047 0-.009-.038-.057-.01-.02-.02-.02-.03-.038l-.326-.616c-.01-.087-.039-.164-.049-.25-.01-.097.01-.184-.01-.27.03-.058.068-.5.078-.606.02-.154.096-.472.086-.597a.759.759 0 00.058-.327l.01-.03s.086-.317.067-.442c.039-.048.135-.616.125-.703l.039-.144c.01-.067.029-.106.01-.164l.019-.057c0-.01.01-.048.01-.058.009-.039.009-.077.019-.116.01-.076.038-.163.028-.24.049-.067.097-.385.087-.481.039-.058.116-.597.135-.712.058-.049 1.213-.02 1.28-.02h1.309l-.096.568-.039.222c-.02.105-.058.211-.058.327h-.038zM32.3 8.364l.077 1.213c.01.067.01.115.01.211 0 .097.019.106.019.203 0 .269.048.548.048.827l.029.395c.019.144.019.279.019.423 0 .116.029.28.038.395l.03.597c0 .096.019.115.019.202l.048.828c0 .096.019.105.019.202 0 .24.029.356.029.616l.038.413H31.01l.318-1.636c.048-.279.115-.539.163-.818.02-.135.049-.26.077-.404.03-.145.058-.27.077-.414l.318-1.636c.058-.27.096-.549.164-.818l.115-.607c.01-.038.01-.048.02-.105l.028-.106.01.019zm9.278 2.868h-1.665c-.068 0-.039-.058-.039-.135l.193-3.05c0-.097.019-.107.019-.193l.058-1.02c.01-.068.01-.125.01-.202 0-.174.047-.607.047-.809 0-.096.02-.115.02-.202l.019-.414c.01-.115.029-.289.029-.414h1.78c.491 0 .347.366.347.751l-.221 3.446c0 .077.01.144 0 .221-.049.433-.049.991-.097 1.415-.029.26.077.597-.5.597v.01zm-11.646 8.97c.039-.183.077-.385.116-.568.038-.202.077-.385.115-.587.039-.192.077-.385.116-.587.038-.193.077-.395.125-.577h2.54c0 .163.049.423.049.587.01.288.058.587.067.876.01.192.048.394.048.596 0 .087-.01.26.068.26h6.073c.077 0 .048-.135.067-.327.02-.24.02-.5.048-.741.01-.058 0-.125 0-.183l.068-.934c.019-.173.01-.394.038-.568.029-.182.02-.375.039-.567.01-.058 0-.116.01-.183l.096-1.492c0-.077 0-.125.01-.202.028-.212.047-.549.047-.76h.443c.067 0 .058.086.077.144l.49 2.06.184.76c.192.75.375 1.492.539 2.252l.134.568c.02.067.01.163.077.163h3.821c0-.086-.067-.279-.096-.375l-.395-1.473c-.154-.625-.346-1.241-.5-1.867-.154-.616-.346-1.241-.49-1.857-.03-.125-.078-.25-.107-.375.472 0 .828-.126 1.088-.337a1.83 1.83 0 00.693-1.463l.212-3.369c.019-.106.01-.24.028-.337l.039-.683c0-.077.01-.096.02-.154.009-.067 0-.116.009-.183.029-.163.019-.337.029-.5l.048-.674c.01-.164.01-.356.029-.52l.057-1.02h1.146c0 .318-.048.626-.048.943l-.068.943c-.02.164-.01.318-.02.482l-.066.943c0 .173-.01.337-.03.481l-.23 3.792c-.02.135-.02.337-.03.472 0 .086-.018.115-.018.221l-.308 5.005c-.01.144-.039.317-.039.462l-.058.953a3.834 3.834 0 00-.029.48h3.773c.077 0 .048-.105.048-.192 0-.154.039-.308.039-.48l.077-1.194a3.53 3.53 0 00.029-.472c0-.087.02-.125.02-.24 0-.116.018-.145.018-.241 0-.125.01-.347.03-.472.028-.163.009-.327.028-.49.01-.145.029-.309.029-.463l.038-.48c0-.107.01-.145.02-.222l.038-.741c.02-.28.058-.664.067-.943l.049-.963c.01-.144.038-.308.038-.462 0-.164.029-.327.039-.481.01-.337.038-.626.048-.963l.337-5.226c.01-.086.01-.154.01-.25 0-.087.018-.125.018-.24H53.6c-.067-.28-.116-.568-.183-.867l-.26-1.299c-.029-.154-.058-.289-.087-.443-.028-.134-.057-.288-.086-.423-.029-.154-.077-.299-.077-.453h-6.93c-.01.068-.029.116-.048.174-.058.163-.135.346-.173.51h-.039c-.019-.068-.086-.116-.134-.164a1.425 1.425 0 00-.357-.24c-.317-.193-.818-.28-1.241-.28h-7.257c0 .26-.038.462-.038.703 0 .077-.01.106-.01.154-.01.067 0 .125-.01.183-.01.096-.019.25-.029.346-.01.058 0 .116 0 .174l-.057.885c-.03.212-.039.79-.058 1.059l-.029.52c0 .182-.038.336-.038.51l-.106 1.578c-.01.289-.058.587-.048.876 0 .289-.039.587-.049.876l-.134 2.079c0 .413-.068.837-.068 1.25h-.019c0-.346-.125-1-.154-1.385l-.029-.231c-.01-.096-.01-.145-.019-.231l-.327-2.762c-.087-.607-.125-1.242-.222-1.839l-.057-.462-.491-4.157c-.02-.174-.039-.116-.404-.116h-3.62l-.654 2.704c-.51 2.031-.981 4.072-1.491 6.112a17.18 17.18 0 00-.164.674l-1.068 4.398-.087.347-.991 4.07c-.01.03-.087.338-.087.338.01.048 0 .028.058.028h3.705v.039z"/></g><defs><clipPath id="ea"><path fill="#fff" d="M0 0h52.338v21.684H0z"/></clipPath></defs></svg><svg fill="none" viewBox="0 0 14 17" id="location-icon" xmlns="http://www.w3.org/2000/svg"><path d="M11.552 2.482a6.766 6.766 0 10-9.57 9.57l4.203 4.212a.799.799 0 001.132 0l4.235-4.25a6.74 6.74 0 000-9.532zm-1.14 8.39l-3.645 3.661-3.645-3.66a5.152 5.152 0 117.29 0zM4.373 4.82a3.446 3.446 0 000 4.865 3.437 3.437 0 005.87-2.393A3.383 3.383 0 009.239 4.86a3.43 3.43 0 00-4.865-.04zm3.74 3.733a1.858 1.858 0 11.535-1.3 1.86 1.86 0 01-.574 1.3h.04z" fill="#ED2266"/></svg><svg fill="none" viewBox="0 0 166 46" id="logo-icon" xmlns="http://www.w3.org/2000/svg"><path d="M30.415 7.405h8.18v8.18a20.704 20.704 0 00-8.18-8.18zm8.18 34.428l-1.62-3.361.029-.018c-.044-.07-.092-.135-.135-.203l-.094-.196a20.63 20.63 0 001.82-2.757v6.535zm-8.18 1.645a20.674 20.674 0 004.543-3.382l1.629 3.382h-6.172zm-25.885 0l1.629-3.382a20.685 20.685 0 004.543 3.382H4.53zm-2.007-8.18c.532.97 1.143 1.89 1.819 2.757l-1.82 3.778v-6.535zm0-27.893h8.179a20.706 20.706 0 00-8.18 8.18v-8.18zM23.05 9.568a4.26 4.26 0 001.396-1.736c8.081 1.784 14.147 9 14.147 17.61 0 3.712-1.129 7.167-3.06 10.039L23.051 9.568zm-2.513 22.223c5.112 0 9.828 2.264 13.005 6.15-3.283 3.408-7.889 5.536-12.985 5.536-5.104 0-9.717-2.135-13.001-5.555a16.79 16.79 0 0112.98-6.131zm-2.47-22.223L5.582 35.48a17.936 17.936 0 01-3.06-10.04c0-8.61 6.067-15.826 14.149-17.609a4.257 4.257 0 001.396 1.736zm2.575.813l10.676 22.16a19.266 19.266 0 00-10.78-3.273 19.304 19.304 0 00-10.73 3.254l10.667-22.141c.028 0 .055.004.084.004.028 0 .055-.004.083-.004zm-.083-5.955c.947 0 1.718.77 1.718 1.718a1.72 1.72 0 01-1.718 1.718 1.72 1.72 0 01-1.719-1.718 1.72 1.72 0 011.719-1.718zm4.049.457a4.259 4.259 0 00-2.789-2.788V0h-2.522v2.095a4.26 4.26 0 00-2.787 2.788H0V46h41.117V4.883H24.608z" fill="#ED2266"/><path d="M59.494 25.565h6.591l-3.171-7.86h-.331l-3.09 7.86zm4.909-10.84l7.337 16.55h-3.172l-1.38-3.035h-8.825l-1.352 3.035h-3.116l7.336-16.55h3.172zm17.044 6.124l4.11-6.123h3.475l-5.654 7.97 6.316 8.578h-3.696L81.309 24.6l-4.688 6.674H73.2l6.15-8.55-5.93-7.998h3.696l4.33 6.123zm11.216-6.123h12.853v2.702h-9.874v3.834h8.825v2.676h-8.825v4.661H105.9v2.675H92.663V14.726zm29.364 16.548h-12.881V14.726h2.951v13.928h9.93v2.62zm5.727.001h-2.896V14.726h2.896v16.549zm7.465-4.165c1.02 1.13 2.537 1.82 4.22 1.82a5.767 5.767 0 004.22-1.793c.965-1.02 1.544-2.454 1.544-4.137 0-1.737-.607-3.172-1.572-4.165a5.836 5.836 0 00-4.192-1.765 5.766 5.766 0 00-4.22 1.793c-.965 1.02-1.573 2.454-1.573 4.137 0 1.655.608 3.09 1.573 4.11zm10.48-10.26c1.573 1.627 2.455 3.75 2.455 6.15 0 2.4-.827 4.468-2.344 6.013-1.572 1.627-3.723 2.565-6.371 2.565-2.648 0-4.91-1.104-6.454-2.758a8.638 8.638 0 01-2.289-5.82c0-2.317.854-4.385 2.316-5.93 1.545-1.655 3.779-2.648 6.427-2.648 2.565 0 4.716.883 6.26 2.427zm8.403 7.253h5.241c.965 0 1.82-.358 2.344-.993a3.423 3.423 0 00.883-2.317c0-.91-.276-1.654-.828-2.233-.551-.69-1.517-1.131-2.537-1.131h-5.103v6.674zm10.26.331a5.537 5.537 0 01-2.261 1.738c.992 1.627 2.123 3.447 3.116 5.103h-3.364l-2.676-4.496h-5.075v4.496h-2.979V14.726h8.164c1.738 0 3.283.634 4.469 1.765 1.103 1.103 1.792 2.537 1.792 4.302 0 1.407-.386 2.62-1.186 3.641z" fill="#000"/></svg><svg fill="none" viewBox="0 0 10 13" id="phone-icon" xmlns="http://www.w3.org/2000/svg"><path d="M8.5 0h-7C.672 0 0 .546 0 1.219V11.78C0 12.454.672 13 1.5 13h7c.828 0 1.5-.546 1.5-1.219V1.22C10 .546 9.328 0 8.5 0zM5 12.188c-.553 0-1-.364-1-.813 0-.45.447-.813 1-.813.553 0 1 .364 1 .813 0 .45-.447.813-1 .813zm3.5-2.743c0 .168-.169.305-.375.305h-6.25c-.206 0-.375-.137-.375-.305V1.523c0-.167.169-.304.375-.304h6.25c.206 0 .375.137.375.304v7.922z" fill="#ED2266"/></svg><svg fill="none" viewBox="0 0 20 20" id="phone2-icon" xmlns="http://www.w3.org/2000/svg"><path d="M17.521 11.032c-.22 0-.452-.07-.672-.12a9.454 9.454 0 01-1.315-.394 2.002 2.002 0 00-2.489 1.007l-.22.453a12.23 12.23 0 01-2.67-2.013 12.257 12.257 0 01-2.008-2.677l.422-.282A2.01 2.01 0 009.573 4.51c-.16-.43-.29-.871-.392-1.319a7.485 7.485 0 01-.12-.684A3.022 3.022 0 008.017.697 3.005 3.005 0 006.05 0H3.04A3.003 3.003 0 00.75 1.025a3.022 3.022 0 00-.722 2.408 19.145 19.145 0 005.458 11.134c3.002 3 6.915 4.912 11.122 5.433h.381A3.006 3.006 0 0020 16.97v-3.02a3.025 3.025 0 00-.718-1.904 3.01 3.01 0 00-1.76-1.014zm.502 6.039a1.008 1.008 0 01-.726.968 1.06 1.06 0 01-.438.038 17.042 17.042 0 01-9.923-4.901 17.13 17.13 0 01-4.84-9.975 1.1 1.1 0 01.25-.825 1.004 1.004 0 01.753-.342H6.11a1.002 1.002 0 011.004.795c.04.275.09.547.15.815.116.53.27 1.052.462 1.56l-1.405.654a1.004 1.004 0 00-.584.956.993.993 0 00.092.383 14.563 14.563 0 007.025 7.046c.245.1.519.1.763 0a1.003 1.003 0 00.572-.524l.622-1.409c.52.186 1.049.34 1.586.463.268.06.539.11.813.151a1.004 1.004 0 01.793 1.007l.02 3.14z" fill="#fff"/></svg><svg fill="none" viewBox="0 0 46 46" id="services1-icon" xmlns="http://www.w3.org/2000/svg"><path d="M28.007 28.06a.524.524 0 01.263 0h11.768c1.35 0 2.577-.552 3.467-1.442a4.895 4.895 0 001.443-3.468c0-1.35-.553-2.578-1.443-3.467a4.895 4.895 0 00-3.467-1.444H5.964c-1.35 0-2.576.553-3.467 1.443a4.894 4.894 0 00-1.442 3.468c0 1.35.552 2.577 1.442 3.468a4.895 4.895 0 003.467 1.443h22.044zm-7.254 5.748l-3.468 5.449 2.296 2.296 5.45-3.468-4.278-4.277zm5.364 4.83l-6.289 4.001v.001l-.009.006-.003.002-.006.004-.002.002-.006.005-.003.001-.001.001-.004.003-.006.004-.003.002-.005.003-.003.001-.009.006h-.001l-.002.002-.005.003-.003.002-.004.001-.005.004-.003.001-.003.002-.003.001-.003.002h-.001l-.002.001-.006.003-.003.002h-.003l-.006.004h-.002l-.001.001-.01.004-.003.001-5.885 3.017a.525.525 0 01-.706-.706c.99-1.98 2.024-3.95 3.034-5.92a.259.259 0 01.017-.033l.005-.01.002-.002.005-.007 4.019-6.314a.523.523 0 01.098-.136l3.486-3.486h-12.61v11.886a2.672 2.672 0 01-.86 1.949v2.52a.351.351 0 01-.352.352h-2.9a.351.351 0 01-.351-.351v-2.55a2.667 2.667 0 01-.58-.799 2.624 2.624 0 01-.252-1.121V29.116a5.945 5.945 0 01-4.118-1.75 5.945 5.945 0 010-8.425 5.949 5.949 0 013.942-1.745v-3.23c0-.251.175-.461.41-.514l-1.692-4.88a.348.348 0 01.015-.264v-.001L8.201.377a.351.351 0 01.642.018l3.764 7.913a.35.35 0 01.019.25l-1.494 4.99a.525.525 0 01.206.417v3.224h11.533l-3.007-3.007-.004-.004-2.346-2.346a.471.471 0 01-.035-.035l-2.617-2.618a.526.526 0 010-.744l8.28-8.28a.527.527 0 01.745 0L41 17.266a5.966 5.966 0 013.249 1.673A5.945 5.945 0 0146 23.152c0 1.64-.67 3.132-1.751 4.212a5.946 5.946 0 01-4.212 1.752H35.65l-9.413 9.432a.521.521 0 01-.121.091l.001-.002zm2.223-9.524l-5.396 5.396 2.922 2.922 8.3-8.318H28.34zm-3.074 0l-3.859 3.86.792.79 4.651-4.65h-1.584zm-14.804 0h-3.89V41c0 .296.066.574.183.823.12.253.29.476.499.655a.35.35 0 01.15.288v2.354h2.198v-2.33a.35.35 0 01.131-.273A1.931 1.931 0 0010.462 41V29.114zM6.747 17.187h3.54V14.49h-3.54v2.697zm17.615 0h15.071L23.516 1.27l-7.535 7.536 1.89 1.89 2.586-2.586a.527.527 0 11.745.744l-2.587 2.587 1.621 1.62 1.462-1.461a.527.527 0 11.744.745l-1.461 1.461 1.62 1.62 2.588-2.586a.526.526 0 01.741.745l-2.586 2.584 1.018 1.018zm13.128 3.62c.648 0 1.234.262 1.658.686.424.424.687 1.01.687 1.658 0 .647-.263 1.233-.687 1.657a2.339 2.339 0 01-1.658.686 2.338 2.338 0 01-1.657-.686 2.337 2.337 0 01-.687-1.657c0-.648.263-1.233.687-1.658a2.337 2.337 0 011.657-.686zm1.162 1.183a1.637 1.637 0 00-1.162-.48 1.637 1.637 0 00-1.641 1.641 1.637 1.637 0 001.642 1.641 1.638 1.638 0 001.641-1.641c0-.454-.183-.864-.48-1.161zM8.51 20.807c.647 0 1.233.262 1.657.686.425.424.687 1.01.687 1.658 0 .647-.263 1.233-.687 1.657a2.338 2.338 0 01-1.657.686 2.336 2.336 0 01-1.658-.686 2.336 2.336 0 01-.686-1.657c0-.647.262-1.232.686-1.656v-.001a2.337 2.337 0 011.658-.687zm1.16 1.183a1.637 1.637 0 00-1.16-.48c-.454 0-.864.183-1.161.48l-.001-.001a1.64 1.64 0 00-.48 1.162 1.637 1.637 0 001.642 1.64 1.639 1.639 0 001.642-1.64c0-.454-.184-.865-.48-1.162h-.001zM8.83 8.539a.262.262 0 01-.525.002l-.027-6.694L5.12 8.479l1.72 4.958h3.594l1.483-4.953L8.804 1.94l.026 6.6zm9.792 33.547l-1.872-1.872-1.966 3.839 3.838-1.967z" fill="#ED2266"/></svg><svg fill="none" viewBox="0 0 47 46" id="services2-icon" xmlns="http://www.w3.org/2000/svg"><path d="M42.476 0H10.633C9.93 0 9.357.573 9.357 1.277v3.809h-4.58c-.704 0-1.277.572-1.277 1.276v38.361c0 .705.573 1.277 1.277 1.277h23.095c.705 0 1.277-.572 1.277-1.277v-.805h13.328c.704 0 1.276-.573 1.276-1.277V1.277C43.753.573 43.18 0 42.476 0zm-14.86 44.468H5.033V6.618h22.585v37.85zm7.785-2.083H29.15V6.362c0-.704-.573-1.276-1.277-1.276H10.89V1.532h24.512v40.853zm6.82 0h-5.288V1.532h5.288v40.853zM7.327 11.587a.766.766 0 010-1.084L9.2 8.631a.766.766 0 111.083 1.083L8.41 11.587a.763.763 0 01-1.083 0zm6.899 1.072c.3.3.3.784 0 1.083l-1.873 1.873a.763.763 0 01-1.083 0 .766.766 0 010-1.083l1.873-1.873a.766.766 0 011.083 0zM6.789 16.11a.766.766 0 010-1.083l6.892-6.892a.766.766 0 111.083 1.083L7.872 16.11a.763.763 0 01-1.083 0zm11.634 22.316a.764.764 0 010-1.083l1.873-1.873a.766.766 0 111.083 1.084l-1.873 1.872a.763.763 0 01-1.083 0zm6.899 1.073c.299.3.299.784 0 1.083l-1.873 1.873a.764.764 0 01-1.083 0c-.3-.3-.3-.784 0-1.084l1.873-1.872c.299-.3.783-.3 1.083 0zm-7.437 3.45a.763.763 0 010-1.082l6.892-6.892a.766.766 0 111.083 1.083l-6.892 6.892a.763.763 0 01-1.083 0z" fill="#ED2266"/></svg><svg fill="none" viewBox="0 0 46 46" id="services3-icon" xmlns="http://www.w3.org/2000/svg"><path d="M27.484 14.94l3.979-6.632a.697.697 0 01.598-.338h13.242c.385 0 .697.312.697.697V30.97a.697.697 0 01-.697.697H32.061a.697.697 0 01-.598-.339l-3.979-6.631h-7.272a.697.697 0 01-.493-.204l-4.182-4.182a.697.697 0 010-.986l4.182-4.181a.697.697 0 01.493-.205h7.272zm-.302 8.363v-6.97H20.5l-3.485 3.485 3.485 3.485h6.68zM44.606 24v-3.485H36.94a.697.697 0 010-1.394h7.667v-3.485h-4.879a.697.697 0 010-1.394h4.88V9.364H32.454l-3.88 6.465v7.978l3.88 6.466h12.151v-4.879h-4.879a.697.697 0 010-1.394h4.88zM11.258 37.242h29.863c.138 0 .273.041.387.117l4.182 2.788c.194.13.31.347.31.58v4.182a.697.697 0 01-.697.697H.697A.697.697 0 010 44.91V1.697C0 1.312.312 1 .697 1h9.06c.359 0 .658.271.694.628l.69 6.907 1.378 4.82a.698.698 0 01-.047.502l-1.984 3.968 1.347 6.735a.7.7 0 01-.013.328l-1.329 4.65 1.306 3.264a.69.69 0 01.042.357l-.583 4.083zM44.606 41.1l-3.696-2.464H10.455a.697.697 0 01-.69-.795l.67-4.694-1.324-3.312a.698.698 0 01-.023-.45l1.347-4.717-1.36-6.804a.7.7 0 01.06-.448l1.969-3.94-1.32-4.618-.657-6.464H1.394v41.818h43.212V41.1zM18.936 6.886a.697.697 0 011.16.773l-2.789 4.182a.697.697 0 01-1.16-.773l2.788-4.182zm-2.789 21.683a.697.697 0 011.16-.774l2.788 4.182a.697.697 0 01-1.16.773l-2.788-4.181z" fill="#ED2266"/></svg><svg fill="none" viewBox="0 0 46 46" id="services4-icon" xmlns="http://www.w3.org/2000/svg"><path d="M30.345 41.136H4.442v-23.48h1.319v22.161h24.584v1.319zm6.46-23.481h1.319v7.836h-1.32v-7.836z" fill="#ED2266"/><path d="M40.117 19.812L21.605 9.125 2.443 19.78 0 15.115 20.526 3.712h2.177L42.56 15.125l-2.443 4.687zM1.784 15.646l1.222 2.341 18.615-10.38 17.965 10.37 1.217-2.341L22.352 5.031h-1.483L1.784 15.646zm33.682 25.055a2.92 2.92 0 01-1.855-.557 2.524 2.524 0 01-.333-.327 7.044 7.044 0 01-1.456-3.205 5.418 5.418 0 010-1.375c.043-.263.12-.519.23-.761.065-.139.115-.285.148-.435a.674.674 0 01.578-.644.66.66 0 01.72.465c.023.08.05.159.082.235.106-.804.157-1.616.153-2.427a.654.654 0 01.41-.614.664.664 0 01.72.144l.301.306.363-1.9v-.001a.66.66 0 011.298 0l.277 1.446.98-1.604a.669.669 0 011.232.302l.149 2.207.163-.163a.66.66 0 011.114.597l-.199 1.023a.695.695 0 01.757.393c.03.077.047.158.05.24.036.17.175.685.261 1.023.097.32.177.643.24.97.154 1.631-.852 3.216-2.555 4.044a8.864 8.864 0 01-3.777.659l-.05-.04zm-1.185-1.742c.05.057.102.109.153.153a1.65 1.65 0 001.022.265 7.602 7.602 0 003.21-.51c1.21-.583 1.926-1.652 1.82-2.73 0-.077-.103-.399-.2-.746v-.036l-.358.358a.654.654 0 01-.777.117.664.664 0 01-.307-.715l.205-1.023a.636.636 0 01-.378 0 .654.654 0 01-.43-.572l-.107-1.59-.823 1.273a.66.66 0 01-1.155-.056.695.695 0 01-.399.342.679.679 0 01-.664-.168l-.102-.102c-.174 2.673-.808 2.673-1.212 2.673a1.13 1.13 0 01-.68-.225c-.014.262-.004.526.031.787.18.914.574 1.772 1.15 2.504z" fill="#ED2266"/><path d="M36.544 43.697A9.46 9.46 0 1146 34.237a9.47 9.47 0 01-9.456 9.46zm0-17.593a8.136 8.136 0 100 16.271 8.136 8.136 0 000-16.271zM19.856 40.701h-9.123V28.403h9.123v12.298zm-7.82-1.324h6.501v-9.65h-6.501v9.65zM6.752 12.488H5.433V2h8.914v6.272h-1.319V3.324H6.752v9.164z" fill="#ED2266"/></svg><svg fill="none" viewBox="0 0 47 46" id="services5-icon" xmlns="http://www.w3.org/2000/svg"><path d="M10.582 0v19.034H9.523V1.057H4.762v17.977H3.704V0h6.878zM38.06 13.218c1.972 0 4.062.457 5.556 2.396 1.493 1.94 2.38 5.23 2.38 10.822 0 .627-.155 1.314-.677 1.834-.404.402-1.043.613-1.819.71l2.315 8.394c.33 1.18.207 2.265-.281 3.073a2.731 2.731 0 01-2.348 1.322h-8.83a.55.55 0 01-.529-.529v-4.758a.55.55 0 01.53-.53h.363l-.71-2.676c-1.203-.098-2.759-.64-3.671-1.421-.868-.744-1.546-1.706-1.72-2.776h-4.315a.534.534 0 01-.33-.116l-2.596-2.065-8.333-2.61a.543.543 0 01-.38-.496l-.017-1.586H2.48a.534.534 0 01-.364-.165c-.33-.327-.562-.715-.562-1.157 0-.443.232-.847.562-1.173a.535.535 0 01.364-.149h10.168l.017-1.603a.544.544 0 01.397-.495l8.35-2.082 2.562-2.05a.536.536 0 01.33-.115l13.756.001zm0 1.058h-3.174v4.758h-1.058v-4.758h-2.116v4.758h-1.058v-4.758h-2.117v4.758H27.48v-4.758h-2.992L22.19 16.11v10.079l2.298 1.834H33.3c.228 0 .449.16.513.38l2.116 7.93c.093.316-.184.681-.513.678h-.529v3.701h8.3c.64 0 1.127-.295 1.438-.81.311-.514.433-1.291.165-2.247l-2.48-8.971c-.08-.312.192-.661.513-.661.985 0 1.487-.231 1.753-.496.265-.265.363-.627.363-1.09 0-5.478-.904-8.541-2.166-10.179-1.261-1.637-2.89-1.982-4.712-1.982zm-35.944.529a.53.53 0 110 1.058.53.53 0 010-1.058zm-.53 1.586a1.058 1.058 0 11.002 2.115 1.058 1.058 0 01-.001-2.115zm11.095 4.23H2.76c-.22.28-.06.278.016.529h9.903v-.53zm-2.1 2.114v22.736H3.703V22.735h1.058v21.678h4.762V22.735h1.058zm-8.465.53a.53.53 0 110 1.058.53.53 0 010-1.059zm-1.058 1.057a1.058 1.058 0 11.001 2.115 1.058 1.058 0 010-2.115z" fill="#ED2266"/></svg><svg fill="none" viewBox="0 0 46 46" id="services6-icon" xmlns="http://www.w3.org/2000/svg"><path d="M0 0v46h46V0H0zm44.414 11.103h-20.62V1.586h20.62v9.517zm-12.69 1.587v9.517H14.276V12.69h17.448zM12.69 22.207H1.586V12.69H12.69v9.517zm9.517 1.586v9.517H1.587v-9.517h20.62zm9.517 11.104v9.517H14.276v-9.517h17.448zm-7.93-1.587v-9.517h20.62v9.517h-20.62zm9.516-11.103V12.69h11.104v9.517H33.31zM22.207 1.587v9.516H1.587V1.586h20.62zm-20.62 33.31H12.69v9.517H1.586v-9.517zm31.723 9.517v-9.517h11.104v9.517H33.31z" fill="#ED2266"/></svg><svg fill="none" viewBox="0 0 6 10" id="slider-arrow-icon" xmlns="http://www.w3.org/2000/svg"><path d="M.851 9.829a.967.967 0 01-.544-.162.747.747 0 01-.209-.212.584.584 0 01-.06-.535.674.674 0 01.159-.24l3.808-3.755L.333 1.162A.67.67 0 01.178.92.583.583 0 01.247.385.754.754 0 01.46.175.91.91 0 01.763.033a1.022 1.022 0 01.677.058.812.812 0 01.261.189l4.106 4.203A.63.63 0 016 4.928a.63.63 0 01-.193.445l-4.25 4.203a.856.856 0 01-.316.196 1.012 1.012 0 01-.39.057z" fill="#000"/></svg><svg fill="none" viewBox="0 0 26 26" id="socials1-icon" xmlns="http://www.w3.org/2000/svg"><path d="M13 25.5c6.904 0 12.5-5.596 12.5-12.5S19.904.5 13 .5.5 6.096.5 13 6.096 25.5 13 25.5z" fill="#55A5DB"/><path d="M17.769 7.906s1.3-.506 1.192.723c-.036.505-.361 2.276-.614 4.19l-.867 5.672s-.072.831-.723.976c-.65.144-1.625-.506-1.806-.65-.145-.109-2.71-1.735-3.613-2.53-.253-.216-.542-.65.036-1.155l3.794-3.613c.433-.434.867-1.445-.94-.217l-5.057 3.432s-.579.361-1.662.036l-2.349-.722s-.867-.542.615-1.084c3.612-1.698 8.056-3.432 11.994-5.058z" fill="#fff"/></svg><svg fill="none" viewBox="0 0 26 26" id="socials2-icon" xmlns="http://www.w3.org/2000/svg"><path d="M22.678 2.938c-.655-.573-3.302-2.395-9.199-2.42 0 0-6.953-.398-10.343 2.55-1.887 1.79-2.55 4.41-2.62 7.656-.07 3.247-.161 9.332 6.024 10.981h.006l-.004 2.518s-.04 1.02.668 1.227c.856.252 1.358-.523 2.175-1.358a66.815 66.815 0 001.535-1.646c4.23.338 7.483-.434 7.853-.548.854-.263 5.687-.85 6.473-6.934.811-6.271-.393-10.238-2.568-12.026zm.717 11.576c-.664 5.08-4.583 5.4-5.306 5.62-.307.093-3.165.767-6.758.545 0 0-2.677 3.063-3.513 3.86-.13.124-.284.174-.387.15-.144-.034-.183-.196-.182-.432.003-.338.023-4.184.023-4.184-5.232-1.377-4.927-6.556-4.867-9.268.06-2.712.596-4.933 2.192-6.427 2.867-2.463 8.773-2.095 8.773-2.095 4.988.02 7.378 1.445 7.933 1.922 1.84 1.494 2.777 5.07 2.092 10.308v.001z" fill="#6DCA75"/><path d="M23.395 14.514c-.664 5.08-4.583 5.4-5.306 5.62-.307.093-3.165.767-6.758.545 0 0-2.677 3.063-3.513 3.86-.13.124-.284.174-.387.15-.144-.034-.183-.196-.182-.432.003-.338.023-4.184.023-4.184-5.232-1.377-4.927-6.556-4.867-9.268.06-2.712.596-4.933 2.192-6.427 2.867-2.463 8.773-2.095 8.773-2.095 4.988.02 7.378 1.445 7.933 1.922 1.84 1.494 2.777 5.07 2.092 10.308v.001z" fill="#6DCA75"/><path d="M15.906 10.899a.343.343 0 01-.23-.087.31.31 0 01-.102-.213c-.057-1.074-.59-1.6-1.678-1.655a.34.34 0 01-.225-.107.307.307 0 01.025-.44.344.344 0 01.236-.084c1.436.075 2.234.853 2.307 2.254a.304.304 0 01-.085.228.336.336 0 01-.231.104h-.017z" fill="#fff"/><path d="M17.618 11.443h-.008a.342.342 0 01-.233-.098.308.308 0 01-.093-.226c.026-1.08-.3-1.956-.995-2.675-.695-.72-1.643-1.11-2.906-1.198a.341.341 0 01-.228-.109.307.307 0 01.034-.446.346.346 0 01.243-.076c1.421.098 2.548.57 3.349 1.4.8.832 1.2 1.883 1.17 3.117a.31.31 0 01-.1.22.343.343 0 01-.233.09z" fill="#fff"/><path d="M19.37 12.092a.343.343 0 01-.236-.092.309.309 0 01-.098-.222c-.016-1.933-.603-3.41-1.795-4.514-1.178-1.087-2.666-1.646-4.424-1.658a.35.35 0 01-.235-.093.308.308 0 01-.097-.224c0-.084.036-.164.098-.223a.343.343 0 01.236-.092h.003c1.935.013 3.579.632 4.884 1.838 1.306 1.206 1.98 2.879 1.997 4.962a.308.308 0 01-.096.224.343.343 0 01-.235.094h-.003zm-5.39 2.726s.468.037.72-.257l.493-.588c.237-.29.81-.476 1.371-.18.42.227.828.475 1.223.74.372.26 1.137.863 1.137.863.363.291.447.718.2 1.168l-.003.01a4.929 4.929 0 01-1.024 1.195c-.004.003-.004.005-.009.007-.353.28-.7.439-1.04.477a1.453 1.453 0 01-.594-.055l-.011-.016c-.525-.14-1.4-.491-2.859-1.254a17.116 17.116 0 01-2.402-1.505 12.428 12.428 0 01-1.08-.909l-.037-.034-.036-.035-.036-.034-.037-.035a12.18 12.18 0 01-.958-1.024 16.126 16.126 0 01-1.586-2.277C6.607 9.69 6.237 8.86 6.089 8.363l-.016-.01a1.25 1.25 0 01-.068-.42.6.6 0 01.009-.144c.042-.322.21-.651.504-.987l.007-.009a5.081 5.081 0 011.26-.97l.01-.003c.475-.234.926-.155 1.232.188.002.002.637.725.91 1.078.28.374.54.762.78 1.16.313.532.117 1.077-.19 1.3l-.619.468c-.312.239-.271.684-.271.684s.917 3.29 4.343 4.12z" fill="#fff"/></svg><svg fill="none" viewBox="0 0 26 26" id="socials3-icon" xmlns="http://www.w3.org/2000/svg"><path d="M13 25.5c6.904 0 12.5-5.596 12.5-12.5S19.904.5 13 .5.5 6.096.5 13 6.096 25.5 13 25.5z" fill="#07F"/><path fill-rule="evenodd" clip-rule="evenodd" d="M12.84 16.928h.838s.244-.035.384-.175c.122-.122.122-.366.122-.366s-.017-1.118.507-1.292c.506-.158 1.17 1.082 1.868 1.554.524.366.926.28.926.28l1.868-.018s.978-.053.507-.821c-.035-.07-.262-.576-1.38-1.607-1.17-1.082-1.013-.908.402-2.794.855-1.135 1.205-1.833 1.1-2.148-.105-.28-.733-.21-.733-.21l-2.096.018s-.157-.017-.28.053a.61.61 0 00-.209.244s-.332.89-.768 1.642c-.943 1.589-1.31 1.676-1.467 1.571-.35-.227-.262-.925-.262-1.414 0-1.537.227-2.183-.454-2.34-.227-.053-.402-.088-.978-.105-.751 0-1.38 0-1.746.175-.245.122-.42.384-.315.384.14.017.454.087.611.314.21.297.21.943.21.943s.122 1.816-.297 2.043c-.28.158-.664-.157-1.502-1.606-.419-.734-.75-1.554-.75-1.554s-.07-.158-.175-.227c-.088-.07-.262-.123-.454-.123l-1.869.018s-.297 0-.401.14c-.105.122 0 .349 0 .349s1.571 3.65 3.335 5.483c1.624 1.711 3.458 1.59 3.458 1.59z" fill="#fff"/></svg></svg>