<?xml version="1.0" encoding="utf-8"?><svg viewBox="0 0 166 46" xmlns="http://www.w3.org/2000/svg" xmlns:xlink="http://www.w3.org/1999/xlink"><style>:root>svg{display:none}:root>svg:target{display:block}</style><svg fill="none" viewBox="0 0 17 13" id="email-icon" xmlns="http://www.w3.org/2000/svg"><path d="M14.125.1h-11.2a2.4 2.4 0 00-2.4 2.4v8a2.4 2.4 0 002.4 2.4h11.2a2.4 2.4 0 002.4-2.4v-8a2.4 2.4 0 00-2.4-2.4zm-11.2 1.6h11.2a.8.8 0 01.8.8l-6.4 3.904-6.4-3.904a.8.8 0 01.8-.8zm12 8.8a.8.8 0 01-.8.8h-11.2a.8.8 0 01-.8-.8V4.325L8.11 7.98a.8.8 0 00.8 0l6.016-3.656V10.5z" fill="#ED2266"/></svg><svg fill="none" viewBox="0 0 14 17" id="location-icon" xmlns="http://www.w3.org/2000/svg"><path d="M11.552 2.482a6.766 6.766 0 10-9.57 9.57l4.203 4.212a.799.799 0 001.132 0l4.235-4.25a6.74 6.74 0 000-9.532zm-1.14 8.39l-3.645 3.661-3.645-3.66a5.152 5.152 0 117.29 0zM4.373 4.82a3.446 3.446 0 000 4.865 3.437 3.437 0 005.87-2.393A3.383 3.383 0 009.239 4.86a3.43 3.43 0 00-4.865-.04zm3.74 3.733a1.858 1.858 0 11.535-1.3 1.86 1.86 0 01-.574 1.3h.04z" fill="#ED2266"/></svg><svg fill="none" viewBox="0 0 166 46" id="logo-icon" xmlns="http://www.w3.org/2000/svg"><path d="M30.415 7.405h8.18v8.18a20.704 20.704 0 00-8.18-8.18zm8.18 34.428l-1.62-3.361.029-.018c-.044-.07-.092-.135-.135-.203l-.094-.196a20.63 20.63 0 001.82-2.757v6.535zm-8.18 1.645a20.674 20.674 0 004.543-3.382l1.629 3.382h-6.172zm-25.885 0l1.629-3.382a20.685 20.685 0 004.543 3.382H4.53zm-2.007-8.18c.532.97 1.143 1.89 1.819 2.757l-1.82 3.778v-6.535zm0-27.893h8.179a20.706 20.706 0 00-8.18 8.18v-8.18zM23.05 9.568a4.26 4.26 0 001.396-1.736c8.081 1.784 14.147 9 14.147 17.61 0 3.712-1.129 7.167-3.06 10.039L23.051 9.568zm-2.513 22.223c5.112 0 9.828 2.264 13.005 6.15-3.283 3.408-7.889 5.536-12.985 5.536-5.104 0-9.717-2.135-13.001-5.555a16.79 16.79 0 0112.98-6.131zm-2.47-22.223L5.582 35.48a17.936 17.936 0 01-3.06-10.04c0-8.61 6.067-15.826 14.149-17.609a4.257 4.257 0 001.396 1.736zm2.575.813l10.676 22.16a19.266 19.266 0 00-10.78-3.273 19.304 19.304 0 00-10.73 3.254l10.667-22.141c.028 0 .055.004.084.004.028 0 .055-.004.083-.004zm-.083-5.955c.947 0 1.718.77 1.718 1.718a1.72 1.72 0 01-1.718 1.718 1.72 1.72 0 01-1.719-1.718 1.72 1.72 0 011.719-1.718zm4.049.457a4.259 4.259 0 00-2.789-2.788V0h-2.522v2.095a4.26 4.26 0 00-2.787 2.788H0V46h41.117V4.883H24.608z" fill="#ED2266"/><path d="M59.494 25.565h6.591l-3.171-7.86h-.331l-3.09 7.86zm4.909-10.84l7.337 16.55h-3.172l-1.38-3.035h-8.825l-1.352 3.035h-3.116l7.336-16.55h3.172zm17.044 6.124l4.11-6.123h3.475l-5.654 7.97 6.316 8.578h-3.696L81.309 24.6l-4.688 6.674H73.2l6.15-8.55-5.93-7.998h3.696l4.33 6.123zm11.216-6.123h12.853v2.702h-9.874v3.834h8.825v2.676h-8.825v4.661H105.9v2.675H92.663V14.726zm29.364 16.548h-12.881V14.726h2.951v13.928h9.93v2.62zm5.727.001h-2.896V14.726h2.896v16.549zm7.465-4.165c1.02 1.13 2.537 1.82 4.22 1.82a5.767 5.767 0 004.22-1.793c.965-1.02 1.544-2.454 1.544-4.137 0-1.737-.607-3.172-1.572-4.165a5.836 5.836 0 00-4.192-1.765 5.766 5.766 0 00-4.22 1.793c-.965 1.02-1.573 2.454-1.573 4.137 0 1.655.608 3.09 1.573 4.11zm10.48-10.26c1.573 1.627 2.455 3.75 2.455 6.15 0 2.4-.827 4.468-2.344 6.013-1.572 1.627-3.723 2.565-6.371 2.565-2.648 0-4.91-1.104-6.454-2.758a8.638 8.638 0 01-2.289-5.82c0-2.317.854-4.385 2.316-5.93 1.545-1.655 3.779-2.648 6.427-2.648 2.565 0 4.716.883 6.26 2.427zm8.403 7.253h5.241c.965 0 1.82-.358 2.344-.993a3.423 3.423 0 00.883-2.317c0-.91-.276-1.654-.828-2.233-.551-.69-1.517-1.131-2.537-1.131h-5.103v6.674zm10.26.331a5.537 5.537 0 01-2.261 1.738c.992 1.627 2.123 3.447 3.116 5.103h-3.364l-2.676-4.496h-5.075v4.496h-2.979V14.726h8.164c1.738 0 3.283.634 4.469 1.765 1.103 1.103 1.792 2.537 1.792 4.302 0 1.407-.386 2.62-1.186 3.641z" fill="#000"/></svg><svg fill="none" viewBox="0 0 10 13" id="phone-icon" xmlns="http://www.w3.org/2000/svg"><path d="M8.5 0h-7C.672 0 0 .546 0 1.219V11.78C0 12.454.672 13 1.5 13h7c.828 0 1.5-.546 1.5-1.219V1.22C10 .546 9.328 0 8.5 0zM5 12.188c-.553 0-1-.364-1-.813 0-.45.447-.813 1-.813.553 0 1 .364 1 .813 0 .45-.447.813-1 .813zm3.5-2.743c0 .168-.169.305-.375.305h-6.25c-.206 0-.375-.137-.375-.305V1.523c0-.167.169-.304.375-.304h6.25c.206 0 .375.137.375.304v7.922z" fill="#ED2266"/></svg><svg fill="none" viewBox="0 0 20 20" id="phone2-icon" xmlns="http://www.w3.org/2000/svg"><path d="M17.521 11.032c-.22 0-.452-.07-.672-.12a9.454 9.454 0 01-1.315-.394 2.002 2.002 0 00-2.489 1.007l-.22.453a12.23 12.23 0 01-2.67-2.013 12.257 12.257 0 01-2.008-2.677l.422-.282A2.01 2.01 0 009.573 4.51c-.16-.43-.29-.871-.392-1.319a7.485 7.485 0 01-.12-.684A3.022 3.022 0 008.017.697 3.005 3.005 0 006.05 0H3.04A3.003 3.003 0 00.75 1.025a3.022 3.022 0 00-.722 2.408 19.145 19.145 0 005.458 11.134c3.002 3 6.915 4.912 11.122 5.433h.381A3.006 3.006 0 0020 16.97v-3.02a3.025 3.025 0 00-.718-1.904 3.01 3.01 0 00-1.76-1.014zm.502 6.039a1.008 1.008 0 01-.726.968 1.06 1.06 0 01-.438.038 17.042 17.042 0 01-9.923-4.901 17.13 17.13 0 01-4.84-9.975 1.1 1.1 0 01.25-.825 1.004 1.004 0 01.753-.342H6.11a1.002 1.002 0 011.004.795c.04.275.09.547.15.815.116.53.27 1.052.462 1.56l-1.405.654a1.004 1.004 0 00-.584.956.993.993 0 00.092.383 14.563 14.563 0 007.025 7.046c.245.1.519.1.763 0a1.003 1.003 0 00.572-.524l.622-1.409c.52.186 1.049.34 1.586.463.268.06.539.11.813.151a1.004 1.004 0 01.793 1.007l.02 3.14z" fill="#fff"/></svg><svg fill="none" viewBox="0 0 46 46" id="services1-icon" xmlns="http://www.w3.org/2000/svg"><path d="M28.007 28.06a.524.524 0 01.263 0h11.768c1.35 0 2.577-.552 3.467-1.442a4.895 4.895 0 001.443-3.468c0-1.35-.553-2.578-1.443-3.467a4.895 4.895 0 00-3.467-1.444H5.964c-1.35 0-2.576.553-3.467 1.443a4.894 4.894 0 00-1.442 3.468c0 1.35.552 2.577 1.442 3.468a4.895 4.895 0 003.467 1.443h22.044zm-7.254 5.748l-3.468 5.449 2.296 2.296 5.45-3.468-4.278-4.277zm5.364 4.83l-6.289 4.001v.001l-.009.006-.003.002-.006.004-.002.002-.006.005-.003.001-.001.001-.004.003-.006.004-.003.002-.005.003-.003.001-.009.006h-.001l-.002.002-.005.003-.003.002-.004.001-.005.004-.003.001-.003.002-.003.001-.003.002h-.001l-.002.001-.006.003-.003.002h-.003l-.006.004h-.002l-.001.001-.01.004-.003.001-5.885 3.017a.525.525 0 01-.706-.706c.99-1.98 2.024-3.95 3.034-5.92a.259.259 0 01.017-.033l.005-.01.002-.002.005-.007 4.019-6.314a.523.523 0 01.098-.136l3.486-3.486h-12.61v11.886a2.672 2.672 0 01-.86 1.949v2.52a.351.351 0 01-.352.352h-2.9a.351.351 0 01-.351-.351v-2.55a2.667 2.667 0 01-.58-.799 2.624 2.624 0 01-.252-1.121V29.116a5.945 5.945 0 01-4.118-1.75 5.945 5.945 0 010-8.425 5.949 5.949 0 013.942-1.745v-3.23c0-.251.175-.461.41-.514l-1.692-4.88a.348.348 0 01.015-.264v-.001L8.201.377a.351.351 0 01.642.018l3.764 7.913a.35.35 0 01.019.25l-1.494 4.99a.525.525 0 01.206.417v3.224h11.533l-3.007-3.007-.004-.004-2.346-2.346a.471.471 0 01-.035-.035l-2.617-2.618a.526.526 0 010-.744l8.28-8.28a.527.527 0 01.745 0L41 17.266a5.966 5.966 0 013.249 1.673A5.945 5.945 0 0146 23.152c0 1.64-.67 3.132-1.751 4.212a5.946 5.946 0 01-4.212 1.752H35.65l-9.413 9.432a.521.521 0 01-.121.091l.001-.002zm2.223-9.524l-5.396 5.396 2.922 2.922 8.3-8.318H28.34zm-3.074 0l-3.859 3.86.792.79 4.651-4.65h-1.584zm-14.804 0h-3.89V41c0 .296.066.574.183.823.12.253.29.476.499.655a.35.35 0 01.15.288v2.354h2.198v-2.33a.35.35 0 01.131-.273A1.931 1.931 0 0010.462 41V29.114zM6.747 17.187h3.54V14.49h-3.54v2.697zm17.615 0h15.071L23.516 1.27l-7.535 7.536 1.89 1.89 2.586-2.586a.527.527 0 11.745.744l-2.587 2.587 1.621 1.62 1.462-1.461a.527.527 0 11.744.745l-1.461 1.461 1.62 1.62 2.588-2.586a.526.526 0 01.741.745l-2.586 2.584 1.018 1.018zm13.128 3.62c.648 0 1.234.262 1.658.686.424.424.687 1.01.687 1.658 0 .647-.263 1.233-.687 1.657a2.339 2.339 0 01-1.658.686 2.338 2.338 0 01-1.657-.686 2.337 2.337 0 01-.687-1.657c0-.648.263-1.233.687-1.658a2.337 2.337 0 011.657-.686zm1.162 1.183a1.637 1.637 0 00-1.162-.48 1.637 1.637 0 00-1.641 1.641 1.637 1.637 0 001.642 1.641 1.638 1.638 0 001.641-1.641c0-.454-.183-.864-.48-1.161zM8.51 20.807c.647 0 1.233.262 1.657.686.425.424.687 1.01.687 1.658 0 .647-.263 1.233-.687 1.657a2.338 2.338 0 01-1.657.686 2.336 2.336 0 01-1.658-.686 2.336 2.336 0 01-.686-1.657c0-.647.262-1.232.686-1.656v-.001a2.337 2.337 0 011.658-.687zm1.16 1.183a1.637 1.637 0 00-1.16-.48c-.454 0-.864.183-1.161.48l-.001-.001a1.64 1.64 0 00-.48 1.162 1.637 1.637 0 001.642 1.64 1.639 1.639 0 001.642-1.64c0-.454-.184-.865-.48-1.162h-.001zM8.83 8.539a.262.262 0 01-.525.002l-.027-6.694L5.12 8.479l1.72 4.958h3.594l1.483-4.953L8.804 1.94l.026 6.6zm9.792 33.547l-1.872-1.872-1.966 3.839 3.838-1.967z" fill="#ED2266"/></svg><svg fill="none" viewBox="0 0 47 46" id="services2-icon" xmlns="http://www.w3.org/2000/svg"><path d="M42.476 0H10.633C9.93 0 9.357.573 9.357 1.277v3.809h-4.58c-.704 0-1.277.572-1.277 1.276v38.361c0 .705.573 1.277 1.277 1.277h23.095c.705 0 1.277-.572 1.277-1.277v-.805h13.328c.704 0 1.276-.573 1.276-1.277V1.277C43.753.573 43.18 0 42.476 0zm-14.86 44.468H5.033V6.618h22.585v37.85zm7.785-2.083H29.15V6.362c0-.704-.573-1.276-1.277-1.276H10.89V1.532h24.512v40.853zm6.82 0h-5.288V1.532h5.288v40.853zM7.327 11.587a.766.766 0 010-1.084L9.2 8.631a.766.766 0 111.083 1.083L8.41 11.587a.763.763 0 01-1.083 0zm6.899 1.072c.3.3.3.784 0 1.083l-1.873 1.873a.763.763 0 01-1.083 0 .766.766 0 010-1.083l1.873-1.873a.766.766 0 011.083 0zM6.789 16.11a.766.766 0 010-1.083l6.892-6.892a.766.766 0 111.083 1.083L7.872 16.11a.763.763 0 01-1.083 0zm11.634 22.316a.764.764 0 010-1.083l1.873-1.873a.766.766 0 111.083 1.084l-1.873 1.872a.763.763 0 01-1.083 0zm6.899 1.073c.299.3.299.784 0 1.083l-1.873 1.873a.764.764 0 01-1.083 0c-.3-.3-.3-.784 0-1.084l1.873-1.872c.299-.3.783-.3 1.083 0zm-7.437 3.45a.763.763 0 010-1.082l6.892-6.892a.766.766 0 111.083 1.083l-6.892 6.892a.763.763 0 01-1.083 0z" fill="#ED2266"/></svg><svg fill="none" viewBox="0 0 46 46" id="services3-icon" xmlns="http://www.w3.org/2000/svg"><path d="M27.484 14.94l3.979-6.632a.697.697 0 01.598-.338h13.242c.385 0 .697.312.697.697V30.97a.697.697 0 01-.697.697H32.061a.697.697 0 01-.598-.339l-3.979-6.631h-7.272a.697.697 0 01-.493-.204l-4.182-4.182a.697.697 0 010-.986l4.182-4.181a.697.697 0 01.493-.205h7.272zm-.302 8.363v-6.97H20.5l-3.485 3.485 3.485 3.485h6.68zM44.606 24v-3.485H36.94a.697.697 0 010-1.394h7.667v-3.485h-4.879a.697.697 0 010-1.394h4.88V9.364H32.454l-3.88 6.465v7.978l3.88 6.466h12.151v-4.879h-4.879a.697.697 0 010-1.394h4.88zM11.258 37.242h29.863c.138 0 .273.041.387.117l4.182 2.788c.194.13.31.347.31.58v4.182a.697.697 0 01-.697.697H.697A.697.697 0 010 44.91V1.697C0 1.312.312 1 .697 1h9.06c.359 0 .658.271.694.628l.69 6.907 1.378 4.82a.698.698 0 01-.047.502l-1.984 3.968 1.347 6.735a.7.7 0 01-.013.328l-1.329 4.65 1.306 3.264a.69.69 0 01.042.357l-.583 4.083zM44.606 41.1l-3.696-2.464H10.455a.697.697 0 01-.69-.795l.67-4.694-1.324-3.312a.698.698 0 01-.023-.45l1.347-4.717-1.36-6.804a.7.7 0 01.06-.448l1.969-3.94-1.32-4.618-.657-6.464H1.394v41.818h43.212V41.1zM18.936 6.886a.697.697 0 011.16.773l-2.789 4.182a.697.697 0 01-1.16-.773l2.788-4.182zm-2.789 21.683a.697.697 0 011.16-.774l2.788 4.182a.697.697 0 01-1.16.773l-2.788-4.181z" fill="#ED2266"/></svg><svg fill="none" viewBox="0 0 46 46" id="services4-icon" xmlns="http://www.w3.org/2000/svg"><path d="M30.345 41.136H4.442v-23.48h1.319v22.161h24.584v1.319zm6.46-23.481h1.319v7.836h-1.32v-7.836z" fill="#ED2266"/><path d="M40.117 19.812L21.605 9.125 2.443 19.78 0 15.115 20.526 3.712h2.177L42.56 15.125l-2.443 4.687zM1.784 15.646l1.222 2.341 18.615-10.38 17.965 10.37 1.217-2.341L22.352 5.031h-1.483L1.784 15.646zm33.682 25.055a2.92 2.92 0 01-1.855-.557 2.524 2.524 0 01-.333-.327 7.044 7.044 0 01-1.456-3.205 5.418 5.418 0 010-1.375c.043-.263.12-.519.23-.761.065-.139.115-.285.148-.435a.674.674 0 01.578-.644.66.66 0 01.72.465c.023.08.05.159.082.235.106-.804.157-1.616.153-2.427a.654.654 0 01.41-.614.664.664 0 01.72.144l.301.306.363-1.9v-.001a.66.66 0 011.298 0l.277 1.446.98-1.604a.669.669 0 011.232.302l.149 2.207.163-.163a.66.66 0 011.114.597l-.199 1.023a.695.695 0 01.757.393c.03.077.047.158.05.24.036.17.175.685.261 1.023.097.32.177.643.24.97.154 1.631-.852 3.216-2.555 4.044a8.864 8.864 0 01-3.777.659l-.05-.04zm-1.185-1.742c.05.057.102.109.153.153a1.65 1.65 0 001.022.265 7.602 7.602 0 003.21-.51c1.21-.583 1.926-1.652 1.82-2.73 0-.077-.103-.399-.2-.746v-.036l-.358.358a.654.654 0 01-.777.117.664.664 0 01-.307-.715l.205-1.023a.636.636 0 01-.378 0 .654.654 0 01-.43-.572l-.107-1.59-.823 1.273a.66.66 0 01-1.155-.056.695.695 0 01-.399.342.679.679 0 01-.664-.168l-.102-.102c-.174 2.673-.808 2.673-1.212 2.673a1.13 1.13 0 01-.68-.225c-.014.262-.004.526.031.787.18.914.574 1.772 1.15 2.504z" fill="#ED2266"/><path d="M36.544 43.697A9.46 9.46 0 1146 34.237a9.47 9.47 0 01-9.456 9.46zm0-17.593a8.136 8.136 0 100 16.271 8.136 8.136 0 000-16.271zM19.856 40.701h-9.123V28.403h9.123v12.298zm-7.82-1.324h6.501v-9.65h-6.501v9.65zM6.752 12.488H5.433V2h8.914v6.272h-1.319V3.324H6.752v9.164z" fill="#ED2266"/></svg><svg fill="none" viewBox="0 0 47 46" id="services5-icon" xmlns="http://www.w3.org/2000/svg"><path d="M10.582 0v19.034H9.523V1.057H4.762v17.977H3.704V0h6.878zM38.06 13.218c1.972 0 4.062.457 5.556 2.396 1.493 1.94 2.38 5.23 2.38 10.822 0 .627-.155 1.314-.677 1.834-.404.402-1.043.613-1.819.71l2.315 8.394c.33 1.18.207 2.265-.281 3.073a2.731 2.731 0 01-2.348 1.322h-8.83a.55.55 0 01-.529-.529v-4.758a.55.55 0 01.53-.53h.363l-.71-2.676c-1.203-.098-2.759-.64-3.671-1.421-.868-.744-1.546-1.706-1.72-2.776h-4.315a.534.534 0 01-.33-.116l-2.596-2.065-8.333-2.61a.543.543 0 01-.38-.496l-.017-1.586H2.48a.534.534 0 01-.364-.165c-.33-.327-.562-.715-.562-1.157 0-.443.232-.847.562-1.173a.535.535 0 01.364-.149h10.168l.017-1.603a.544.544 0 01.397-.495l8.35-2.082 2.562-2.05a.536.536 0 01.33-.115l13.756.001zm0 1.058h-3.174v4.758h-1.058v-4.758h-2.116v4.758h-1.058v-4.758h-2.117v4.758H27.48v-4.758h-2.992L22.19 16.11v10.079l2.298 1.834H33.3c.228 0 .449.16.513.38l2.116 7.93c.093.316-.184.681-.513.678h-.529v3.701h8.3c.64 0 1.127-.295 1.438-.81.311-.514.433-1.291.165-2.247l-2.48-8.971c-.08-.312.192-.661.513-.661.985 0 1.487-.231 1.753-.496.265-.265.363-.627.363-1.09 0-5.478-.904-8.541-2.166-10.179-1.261-1.637-2.89-1.982-4.712-1.982zm-35.944.529a.53.53 0 110 1.058.53.53 0 010-1.058zm-.53 1.586a1.058 1.058 0 11.002 2.115 1.058 1.058 0 01-.001-2.115zm11.095 4.23H2.76c-.22.28-.06.278.016.529h9.903v-.53zm-2.1 2.114v22.736H3.703V22.735h1.058v21.678h4.762V22.735h1.058zm-8.465.53a.53.53 0 110 1.058.53.53 0 010-1.059zm-1.058 1.057a1.058 1.058 0 11.001 2.115 1.058 1.058 0 010-2.115z" fill="#ED2266"/></svg><svg fill="none" viewBox="0 0 46 46" id="services6-icon" xmlns="http://www.w3.org/2000/svg"><path d="M0 0v46h46V0H0zm44.414 11.103h-20.62V1.586h20.62v9.517zm-12.69 1.587v9.517H14.276V12.69h17.448zM12.69 22.207H1.586V12.69H12.69v9.517zm9.517 1.586v9.517H1.587v-9.517h20.62zm9.517 11.104v9.517H14.276v-9.517h17.448zm-7.93-1.587v-9.517h20.62v9.517h-20.62zm9.516-11.103V12.69h11.104v9.517H33.31zM22.207 1.587v9.516H1.587V1.586h20.62zm-20.62 33.31H12.69v9.517H1.586v-9.517zm31.723 9.517v-9.517h11.104v9.517H33.31z" fill="#ED2266"/></svg><svg fill="none" viewBox="0 0 6 10" id="slider-arrow-icon" xmlns="http://www.w3.org/2000/svg"><path d="M.851 9.829a.967.967 0 01-.544-.162.747.747 0 01-.209-.212.584.584 0 01-.06-.535.674.674 0 01.159-.24l3.808-3.755L.333 1.162A.67.67 0 01.178.92.583.583 0 01.247.385.754.754 0 01.46.175.91.91 0 01.763.033a1.022 1.022 0 01.677.058.812.812 0 01.261.189l4.106 4.203A.63.63 0 016 4.928a.63.63 0 01-.193.445l-4.25 4.203a.856.856 0 01-.316.196 1.012 1.012 0 01-.39.057z" fill="#000"/></svg><svg fill="none" viewBox="0 0 26 26" id="socials1-icon" xmlns="http://www.w3.org/2000/svg"><path d="M13 25.5c6.904 0 12.5-5.596 12.5-12.5S19.904.5 13 .5.5 6.096.5 13 6.096 25.5 13 25.5z" fill="#55A5DB"/><path d="M17.769 7.906s1.3-.506 1.192.723c-.036.505-.361 2.276-.614 4.19l-.867 5.672s-.072.831-.723.976c-.65.144-1.625-.506-1.806-.65-.145-.109-2.71-1.735-3.613-2.53-.253-.216-.542-.65.036-1.155l3.794-3.613c.433-.434.867-1.445-.94-.217l-5.057 3.432s-.579.361-1.662.036l-2.349-.722s-.867-.542.615-1.084c3.612-1.698 8.056-3.432 11.994-5.058z" fill="#fff"/></svg><svg fill="none" viewBox="0 0 26 26" id="socials2-icon" xmlns="http://www.w3.org/2000/svg"><path d="M22.678 2.938c-.655-.573-3.302-2.395-9.199-2.42 0 0-6.953-.398-10.343 2.55-1.887 1.79-2.55 4.41-2.62 7.656-.07 3.247-.161 9.332 6.024 10.981h.006l-.004 2.518s-.04 1.02.668 1.227c.856.252 1.358-.523 2.175-1.358a66.815 66.815 0 001.535-1.646c4.23.338 7.483-.434 7.853-.548.854-.263 5.687-.85 6.473-6.934.811-6.271-.393-10.238-2.568-12.026zm.717 11.576c-.664 5.08-4.583 5.4-5.306 5.62-.307.093-3.165.767-6.758.545 0 0-2.677 3.063-3.513 3.86-.13.124-.284.174-.387.15-.144-.034-.183-.196-.182-.432.003-.338.023-4.184.023-4.184-5.232-1.377-4.927-6.556-4.867-9.268.06-2.712.596-4.933 2.192-6.427 2.867-2.463 8.773-2.095 8.773-2.095 4.988.02 7.378 1.445 7.933 1.922 1.84 1.494 2.777 5.07 2.092 10.308v.001z" fill="#6DCA75"/><path d="M23.395 14.514c-.664 5.08-4.583 5.4-5.306 5.62-.307.093-3.165.767-6.758.545 0 0-2.677 3.063-3.513 3.86-.13.124-.284.174-.387.15-.144-.034-.183-.196-.182-.432.003-.338.023-4.184.023-4.184-5.232-1.377-4.927-6.556-4.867-9.268.06-2.712.596-4.933 2.192-6.427 2.867-2.463 8.773-2.095 8.773-2.095 4.988.02 7.378 1.445 7.933 1.922 1.84 1.494 2.777 5.07 2.092 10.308v.001z" fill="#6DCA75"/><path d="M15.906 10.899a.343.343 0 01-.23-.087.31.31 0 01-.102-.213c-.057-1.074-.59-1.6-1.678-1.655a.34.34 0 01-.225-.107.307.307 0 01.025-.44.344.344 0 01.236-.084c1.436.075 2.234.853 2.307 2.254a.304.304 0 01-.085.228.336.336 0 01-.231.104h-.017z" fill="#fff"/><path d="M17.618 11.443h-.008a.342.342 0 01-.233-.098.308.308 0 01-.093-.226c.026-1.08-.3-1.956-.995-2.675-.695-.72-1.643-1.11-2.906-1.198a.341.341 0 01-.228-.109.307.307 0 01.034-.446.346.346 0 01.243-.076c1.421.098 2.548.57 3.349 1.4.8.832 1.2 1.883 1.17 3.117a.31.31 0 01-.1.22.343.343 0 01-.233.09z" fill="#fff"/><path d="M19.37 12.092a.343.343 0 01-.236-.092.309.309 0 01-.098-.222c-.016-1.933-.603-3.41-1.795-4.514-1.178-1.087-2.666-1.646-4.424-1.658a.35.35 0 01-.235-.093.308.308 0 01-.097-.224c0-.084.036-.164.098-.223a.343.343 0 01.236-.092h.003c1.935.013 3.579.632 4.884 1.838 1.306 1.206 1.98 2.879 1.997 4.962a.308.308 0 01-.096.224.343.343 0 01-.235.094h-.003zm-5.39 2.726s.468.037.72-.257l.493-.588c.237-.29.81-.476 1.371-.18.42.227.828.475 1.223.74.372.26 1.137.863 1.137.863.363.291.447.718.2 1.168l-.003.01a4.929 4.929 0 01-1.024 1.195c-.004.003-.004.005-.009.007-.353.28-.7.439-1.04.477a1.453 1.453 0 01-.594-.055l-.011-.016c-.525-.14-1.4-.491-2.859-1.254a17.116 17.116 0 01-2.402-1.505 12.428 12.428 0 01-1.08-.909l-.037-.034-.036-.035-.036-.034-.037-.035a12.18 12.18 0 01-.958-1.024 16.126 16.126 0 01-1.586-2.277C6.607 9.69 6.237 8.86 6.089 8.363l-.016-.01a1.25 1.25 0 01-.068-.42.6.6 0 01.009-.144c.042-.322.21-.651.504-.987l.007-.009a5.081 5.081 0 011.26-.97l.01-.003c.475-.234.926-.155 1.232.188.002.002.637.725.91 1.078.28.374.54.762.78 1.16.313.532.117 1.077-.19 1.3l-.619.468c-.312.239-.271.684-.271.684s.917 3.29 4.343 4.12z" fill="#fff"/></svg><svg fill="none" viewBox="0 0 26 26" id="socials3-icon" xmlns="http://www.w3.org/2000/svg"><path d="M13 25.5c6.904 0 12.5-5.596 12.5-12.5S19.904.5 13 .5.5 6.096.5 13 6.096 25.5 13 25.5z" fill="#07F"/><path fill-rule="evenodd" clip-rule="evenodd" d="M12.84 16.928h.838s.244-.035.384-.175c.122-.122.122-.366.122-.366s-.017-1.118.507-1.292c.506-.158 1.17 1.082 1.868 1.554.524.366.926.28.926.28l1.868-.018s.978-.053.507-.821c-.035-.07-.262-.576-1.38-1.607-1.17-1.082-1.013-.908.402-2.794.855-1.135 1.205-1.833 1.1-2.148-.105-.28-.733-.21-.733-.21l-2.096.018s-.157-.017-.28.053a.61.61 0 00-.209.244s-.332.89-.768 1.642c-.943 1.589-1.31 1.676-1.467 1.571-.35-.227-.262-.925-.262-1.414 0-1.537.227-2.183-.454-2.34-.227-.053-.402-.088-.978-.105-.751 0-1.38 0-1.746.175-.245.122-.42.384-.315.384.14.017.454.087.611.314.21.297.21.943.21.943s.122 1.816-.297 2.043c-.28.158-.664-.157-1.502-1.606-.419-.734-.75-1.554-.75-1.554s-.07-.158-.175-.227c-.088-.07-.262-.123-.454-.123l-1.869.018s-.297 0-.401.14c-.105.122 0 .349 0 .349s1.571 3.65 3.335 5.483c1.624 1.711 3.458 1.59 3.458 1.59z" fill="#fff"/></svg></svg>