<?xml version="1.0" encoding="utf-8"?><svg viewBox="0 0 166 46" xmlns="http://www.w3.org/2000/svg" xmlns:xlink="http://www.w3.org/1999/xlink"><style>:root>svg{display:none}:root>svg:target{display:block}</style><svg fill="none" viewBox="0 0 17 13" id="email-icon" xmlns="http://www.w3.org/2000/svg"><path d="M14.125.1h-11.2a2.4 2.4 0 00-2.4 2.4v8a2.4 2.4 0 002.4 2.4h11.2a2.4 2.4 0 002.4-2.4v-8a2.4 2.4 0 00-2.4-2.4zm-11.2 1.6h11.2a.8.8 0 01.8.8l-6.4 3.904-6.4-3.904a.8.8 0 01.8-.8zm12 8.8a.8.8 0 01-.8.8h-11.2a.8.8 0 01-.8-.8V4.325L8.11 7.98a.8.8 0 00.8 0l6.016-3.656V10.5z" fill="#ED2266"/></svg><svg fill="none" viewBox="0 0 14 17" id="location-icon" xmlns="http://www.w3.org/2000/svg"><path d="M11.552 2.482a6.766 6.766 0 10-9.57 9.57l4.203 4.212a.799.799 0 001.132 0l4.235-4.25a6.74 6.74 0 000-9.532zm-1.14 8.39l-3.645 3.661-3.645-3.66a5.152 5.152 0 117.29 0zM4.373 4.82a3.446 3.446 0 000 4.865 3.437 3.437 0 005.87-2.393A3.383 3.383 0 009.239 4.86a3.43 3.43 0 00-4.865-.04zm3.74 3.733a1.858 1.858 0 11.535-1.3 1.86 1.86 0 01-.574 1.3h.04z" fill="#ED2266"/></svg><svg fill="none" viewBox="0 0 166 46" id="logo-icon" xmlns="http://www.w3.org/2000/svg"><path d="M30.415 7.405h8.18v8.18a20.704 20.704 0 00-8.18-8.18zm8.18 34.428l-1.62-3.361.029-.018c-.044-.07-.092-.135-.135-.203l-.094-.196a20.63 20.63 0 001.82-2.757v6.535zm-8.18 1.645a20.674 20.674 0 004.543-3.382l1.629 3.382h-6.172zm-25.885 0l1.629-3.382a20.685 20.685 0 004.543 3.382H4.53zm-2.007-8.18c.532.97 1.143 1.89 1.819 2.757l-1.82 3.778v-6.535zm0-27.893h8.179a20.706 20.706 0 00-8.18 8.18v-8.18zM23.05 9.568a4.26 4.26 0 001.396-1.736c8.081 1.784 14.147 9 14.147 17.61 0 3.712-1.129 7.167-3.06 10.039L23.051 9.568zm-2.513 22.223c5.112 0 9.828 2.264 13.005 6.15-3.283 3.408-7.889 5.536-12.985 5.536-5.104 0-9.717-2.135-13.001-5.555a16.79 16.79 0 0112.98-6.131zm-2.47-22.223L5.582 35.48a17.936 17.936 0 01-3.06-10.04c0-8.61 6.067-15.826 14.149-17.609a4.257 4.257 0 001.396 1.736zm2.575.813l10.676 22.16a19.266 19.266 0 00-10.78-3.273 19.304 19.304 0 00-10.73 3.254l10.667-22.141c.028 0 .055.004.084.004.028 0 .055-.004.083-.004zm-.083-5.955c.947 0 1.718.77 1.718 1.718a1.72 1.72 0 01-1.718 1.718 1.72 1.72 0 01-1.719-1.718 1.72 1.72 0 011.719-1.718zm4.049.457a4.259 4.259 0 00-2.789-2.788V0h-2.522v2.095a4.26 4.26 0 00-2.787 2.788H0V46h41.117V4.883H24.608z" fill="#ED2266"/><path d="M59.494 25.565h6.591l-3.171-7.86h-.331l-3.09 7.86zm4.909-10.84l7.337 16.55h-3.172l-1.38-3.035h-8.825l-1.352 3.035h-3.116l7.336-16.55h3.172zm17.044 6.124l4.11-6.123h3.475l-5.654 7.97 6.316 8.578h-3.696L81.309 24.6l-4.688 6.674H73.2l6.15-8.55-5.93-7.998h3.696l4.33 6.123zm11.216-6.123h12.853v2.702h-9.874v3.834h8.825v2.676h-8.825v4.661H105.9v2.675H92.663V14.726zm29.364 16.548h-12.881V14.726h2.951v13.928h9.93v2.62zm5.727.001h-2.896V14.726h2.896v16.549zm7.465-4.165c1.02 1.13 2.537 1.82 4.22 1.82a5.767 5.767 0 004.22-1.793c.965-1.02 1.544-2.454 1.544-4.137 0-1.737-.607-3.172-1.572-4.165a5.836 5.836 0 00-4.192-1.765 5.766 5.766 0 00-4.22 1.793c-.965 1.02-1.573 2.454-1.573 4.137 0 1.655.608 3.09 1.573 4.11zm10.48-10.26c1.573 1.627 2.455 3.75 2.455 6.15 0 2.4-.827 4.468-2.344 6.013-1.572 1.627-3.723 2.565-6.371 2.565-2.648 0-4.91-1.104-6.454-2.758a8.638 8.638 0 01-2.289-5.82c0-2.317.854-4.385 2.316-5.93 1.545-1.655 3.779-2.648 6.427-2.648 2.565 0 4.716.883 6.26 2.427zm8.403 7.253h5.241c.965 0 1.82-.358 2.344-.993a3.423 3.423 0 00.883-2.317c0-.91-.276-1.654-.828-2.233-.551-.69-1.517-1.131-2.537-1.131h-5.103v6.674zm10.26.331a5.537 5.537 0 01-2.261 1.738c.992 1.627 2.123 3.447 3.116 5.103h-3.364l-2.676-4.496h-5.075v4.496h-2.979V14.726h8.164c1.738 0 3.283.634 4.469 1.765 1.103 1.103 1.792 2.537 1.792 4.302 0 1.407-.386 2.62-1.186 3.641z" fill="#000"/></svg><svg fill="none" viewBox="0 0 10 13" id="phone-icon" xmlns="http://www.w3.org/2000/svg"><path d="M8.5 0h-7C.672 0 0 .546 0 1.219V11.78C0 12.454.672 13 1.5 13h7c.828 0 1.5-.546 1.5-1.219V1.22C10 .546 9.328 0 8.5 0zM5 12.188c-.553 0-1-.364-1-.813 0-.45.447-.813 1-.813.553 0 1 .364 1 .813 0 .45-.447.813-1 .813zm3.5-2.743c0 .168-.169.305-.375.305h-6.25c-.206 0-.375-.137-.375-.305V1.523c0-.167.169-.304.375-.304h6.25c.206 0 .375.137.375.304v7.922z" fill="#ED2266"/></svg><svg fill="none" viewBox="0 0 20 20" id="phone2-icon" xmlns="http://www.w3.org/2000/svg"><path d="M17.521 11.032c-.22 0-.452-.07-.672-.12a9.454 9.454 0 01-1.315-.394 2.002 2.002 0 00-2.489 1.007l-.22.453a12.23 12.23 0 01-2.67-2.013 12.257 12.257 0 01-2.008-2.677l.422-.282A2.01 2.01 0 009.573 4.51c-.16-.43-.29-.871-.392-1.319a7.485 7.485 0 01-.12-.684A3.022 3.022 0 008.017.697 3.005 3.005 0 006.05 0H3.04A3.003 3.003 0 00.75 1.025a3.022 3.022 0 00-.722 2.408 19.145 19.145 0 005.458 11.134c3.002 3 6.915 4.912 11.122 5.433h.381A3.006 3.006 0 0020 16.97v-3.02a3.025 3.025 0 00-.718-1.904 3.01 3.01 0 00-1.76-1.014zm.502 6.039a1.008 1.008 0 01-.726.968 1.06 1.06 0 01-.438.038 17.042 17.042 0 01-9.923-4.901 17.13 17.13 0 01-4.84-9.975 1.1 1.1 0 01.25-.825 1.004 1.004 0 01.753-.342H6.11a1.002 1.002 0 011.004.795c.04.275.09.547.15.815.116.53.27 1.052.462 1.56l-1.405.654a1.004 1.004 0 00-.584.956.993.993 0 00.092.383 14.563 14.563 0 007.025 7.046c.245.1.519.1.763 0a1.003 1.003 0 00.572-.524l.622-1.409c.52.186 1.049.34 1.586.463.268.06.539.11.813.151a1.004 1.004 0 01.793 1.007l.02 3.14z" fill="#fff"/></svg></svg>