<svg width="62" height="56" viewBox="0 0 62 56" fill="none" xmlns="http://www.w3.org/2000/svg">
<path d="M7.34909 30.2796H14.6295C15.1739 30.2796 15.7183 29.7352 15.7183 29.1908C15.7183 28.6469 15.1739 28.1025 14.6295 28.1025H7.34909C6.80468 28.1025 6.26028 28.6469 6.26028 29.1908C6.26028 29.7647 6.78712 30.2796 7.34909 30.2796ZM7.34909 11.2274H31.7087C32.285 11.2274 32.6613 10.6721 32.6613 10.139C32.6613 9.62834 32.2541 9.05023 31.7087 9.05023H7.34909C6.72447 9.05023 6.12406 9.39909 6.12406 10.0707C6.12406 10.6602 6.76814 11.2274 7.34909 11.2274ZM7.34909 16.6031H24.9724C25.5491 16.6031 25.925 16.0473 25.925 15.5143C25.925 15.0036 25.5182 14.4255 24.9724 14.4255H7.34909C6.72447 14.4255 6.12406 14.7743 6.12406 15.4464C6.12406 16.0354 6.76814 16.6031 7.34909 16.6031ZM41.0307 17.2832C34.9682 17.2832 29.6623 22.4326 29.759 28.5786C29.8545 34.645 34.8761 39.7981 41.0307 39.8061C47.1626 39.8137 52.3261 34.7593 52.3261 28.5786C52.3261 22.4445 47.1649 17.2832 41.0307 17.2832ZM41.0307 37.5603C36.096 37.5603 32.0273 33.4495 31.9561 28.5782C31.8835 23.5571 36.0869 19.4705 41.0307 19.4881C45.9702 19.5061 50.0127 23.7114 50.0127 28.5782C50.0127 33.4888 45.9385 37.5603 41.0307 37.5603ZM60.9676 48.1072L53.0061 39.6017C55.8083 36.6063 57.3414 32.5989 57.3547 28.5105C57.3784 21.0525 51.9708 14.1982 44.6366 12.5882V3.94654C44.6366 1.7983 42.8434 0 40.69 0H4.01446C1.86671 0 0 1.787 0 3.94654V52.0535C0 54.2017 1.7932 56 3.94654 56H40.6221C42.7699 56 44.5686 54.2068 44.5686 52.0535V44.5006C47.0182 43.9567 49.3316 42.7995 51.3047 41.2346L59.2662 49.6722C59.7015 50.1074 60.3498 50.1012 60.8311 49.74C61.2877 49.5117 61.2868 48.4267 60.9673 48.1072L60.9676 48.1072ZM42.3916 51.9854C42.3916 52.9907 41.6227 53.6215 40.6905 53.7544H4.01494C3.05096 53.7544 2.31385 53.0055 2.31385 52.0533V3.94642C2.31385 2.96961 3.05571 2.24532 4.01494 2.24532H40.6905C41.6517 2.24532 42.3916 3.08305 42.3916 4.01434V12.3157C41.9834 12.2478 41.5074 12.2478 41.0309 12.2478C32.0968 12.2478 24.7004 19.644 24.7004 28.5783C24.7004 37.5123 32.0966 44.9088 41.0309 44.9088C41.5074 44.9088 41.9156 44.9088 42.3916 44.8405V51.9854ZM41.0309 42.6635C33.3508 42.6635 26.9665 36.1719 26.9458 28.5785C26.9249 20.9245 33.3772 14.4424 41.0309 14.4254C48.6492 14.4093 55.184 20.8989 55.184 28.5785C55.184 36.3183 48.7408 42.6635 41.0309 42.6635ZM24.7004 41.3706H7.21312C6.6089 41.3706 6.19266 41.7954 6.19266 42.3911C6.19266 42.982 6.62316 43.412 7.21312 43.412H24.7004C25.3046 43.412 25.7208 42.9872 25.7208 42.3911C25.7208 41.8006 25.2903 41.3706 24.7004 41.3706ZM19.869 47.0182H7.21288C6.60866 47.0182 6.19242 47.443 6.19242 48.0387C6.19242 48.6291 6.62291 49.0596 7.21288 49.0596H19.869C20.4732 49.0596 20.8899 48.6348 20.8899 48.0387C20.8899 47.4482 20.459 47.0182 19.869 47.0182ZM47.0865 23.5431C46.6195 23.0761 45.9322 23.2683 45.5216 23.6789L39.874 30.5515L35.9953 28.5101C35.4732 28.2491 34.7635 28.4555 34.4988 28.9862C34.2373 29.5087 34.4442 30.2179 34.9748 30.4831L39.67 32.9327C40.0843 33.2094 40.7697 32.9844 41.0307 32.5924L47.2228 24.9716C47.5076 24.4021 47.5888 24.0447 47.0866 23.5429L47.0865 23.5431Z" fill="#ED2266"/>
</svg>
