<svg width="56" height="56" viewBox="0 0 56 56" fill="none" xmlns="http://www.w3.org/2000/svg">
<path d="M18.16 29.0001C21.9417 28.9974 25.5671 27.4929 28.2394 24.8175C30.9117 22.142 32.4117 18.5148 32.4099 14.7336C32.4081 10.9519 30.9045 7.32604 28.23 4.65324C25.5551 1.98044 21.9282 0.479181 18.1469 0.479981C14.3652 0.480874 10.7389 1.98352 8.06569 4.65815C5.39197 7.33221 3.89026 10.9586 3.89026 14.7403C3.89517 18.522 5.401 22.1479 8.07597 24.8211C10.7514 27.4948 14.3783 28.9975 18.1599 29.0001H18.16ZM18.16 2.46981C21.4104 2.47249 24.5269 3.76581 26.8239 6.06535C29.1212 8.3649 30.4109 11.4827 30.41 14.7332C30.4091 17.9836 29.1176 21.1007 26.8194 23.3988C24.5208 25.697 21.4037 26.989 18.1533 26.9899C14.9033 26.9908 11.7855 25.7007 9.48592 23.4038C7.18637 21.1064 5.893 17.9899 5.89037 14.7399C5.89305 11.4863 7.18637 8.36707 9.48683 6.06615C11.7873 3.7657 14.9069 2.47244 18.1601 2.4697L18.16 2.46981Z" fill="#ED2266"/>
<path d="M1 56.0001H35C35.2652 56.0001 35.5196 55.8948 35.7071 55.7073C35.8946 55.5198 36 55.2653 36 55.0001V45.0001C36 42.0828 34.841 39.2849 32.7782 37.222C30.7152 35.159 27.9175 34.0001 25 34.0001H11C8.08263 34.0001 5.2848 35.1591 3.22183 37.222C1.15886 39.2849 0 42.0826 0 45.0001V55.0001C0 55.2653 0.105358 55.5198 0.292857 55.7073C0.480357 55.8948 0.734823 56.0001 1 56.0001ZM2 45.0001C2 42.613 2.94822 40.3238 4.63611 38.6362C6.32366 36.9482 8.61291 36.0001 11 36.0001H25C27.3871 36.0001 29.6763 36.9483 31.3639 38.6362C33.0519 40.3238 34 42.613 34 45.0001V54.0001H2V45.0001Z" fill="#ED2266"/>
<path d="M46 1.00012V9.00012C46 9.2653 46.1054 9.51977 46.2929 9.70727C46.4804 9.89476 46.7348 10.0001 47 10.0001H55C55.2652 10.0001 55.5196 9.89476 55.7071 9.70727C55.8946 9.51977 56 9.2653 56 9.00012V1.00012C56 0.734945 55.8946 0.480476 55.7071 0.292979C55.5196 0.105482 55.2652 0.00012207 55 0.00012207H47C46.4478 0.00012207 46 0.447894 46 1.00012ZM48 2.00012H54V8.00012H48V2.00012Z" fill="#ED2266"/>
<path d="M47 56.0001H55C55.2652 56.0001 55.5196 55.8948 55.7071 55.7073C55.8946 55.5198 56 55.2653 56 55.0001V47.0001C56 46.7349 55.8946 46.4805 55.7071 46.293C55.5196 46.1055 55.2652 46.0001 55 46.0001H47C46.4478 46.0001 46 46.4479 46 47.0001V55.0001C46 55.2653 46.1054 55.5198 46.2929 55.7073C46.4804 55.8948 46.7348 56.0001 47 56.0001ZM48 48.0001H54V54.0001H48V48.0001Z" fill="#ED2266"/>
<path d="M56 24.0001C56 23.7349 55.8946 23.4805 55.7071 23.293C55.5196 23.1055 55.2652 23.0001 55 23.0001H47C46.4478 23.0001 46 23.4479 46 24.0001V32.0001C46 32.2653 46.1054 32.5198 46.2929 32.7073C46.4804 32.8948 46.7348 33.0001 47 33.0001H55C55.2652 33.0001 55.5196 32.8948 55.7071 32.7073C55.8946 32.5198 56 32.2653 56 32.0001V24.0001ZM54 31.0001H48V25.0001H54V31.0001Z" fill="#ED2266"/>
<path d="M45 28.0002C45 27.735 44.8946 27.4805 44.7071 27.293C44.5196 27.1055 44.2651 27.0002 44 27.0002H34.6201L44.8901 6.45044C45.0178 6.21205 45.0437 5.93213 44.9616 5.67409C44.8794 5.4165 44.6959 5.20266 44.454 5.08257C44.2116 4.96203 43.9308 4.94463 43.6759 5.0348C43.4205 5.12498 43.2129 5.31471 43.1 5.56026L32.1 27.5603C31.9678 27.825 31.9678 28.1362 32.1 28.4004L43.1 50.4004C43.3553 50.8768 43.9428 51.0638 44.4262 50.8232C44.9102 50.5826 45.1155 50.0013 44.8901 49.5103L34.62 29.0006H43.9999C44.2651 29.0006 44.5196 28.8952 44.7071 28.7077C44.8946 28.5202 44.9999 28.2658 44.9999 28.0006L45 28.0002Z" fill="#ED2266"/>
</svg>
