<svg width="57" height="57" viewBox="0 0 57 57" fill="none" xmlns="http://www.w3.org/2000/svg">
<path d="M7.49456 24.4858H20.9785C23.5749 24.4858 25.6869 22.6889 25.6869 20.48C25.6869 18.8491 24.4995 17.3865 22.7707 16.776C22.6385 14.8112 20.724 13.2471 18.389 13.2471C18.1553 13.2471 17.9225 13.2631 17.6934 13.2936C16.561 11.9185 14.6954 11.0852 12.6722 11.0852C9.30318 11.0852 6.56232 13.3952 6.56232 16.2343C6.56232 16.3402 6.56561 16.4455 6.57314 16.5508C4.41547 16.9163 2.78547 18.5392 2.78547 20.4806C2.78547 22.689 4.89752 24.486 7.4939 24.486L7.49456 24.4858ZM7.49456 18.2804H7.65681C7.94839 18.2804 8.22209 18.1394 8.3914 17.9019C8.56117 17.6644 8.60584 17.3596 8.51132 17.084C8.41726 16.808 8.36882 16.5221 8.36882 16.2338C8.36882 14.3907 10.2993 12.891 12.6728 12.891C14.324 12.891 15.8063 13.6128 16.5405 14.774C16.7516 15.1074 17.1546 15.2659 17.5374 15.1639C17.8111 15.09 18.098 15.0529 18.3905 15.0529C19.8145 15.0529 20.9733 15.9234 20.9733 16.9923C20.9733 17.0878 20.9639 17.1837 20.9451 17.2773C20.8976 17.5138 20.9465 17.7603 21.0819 17.9606C21.2169 18.161 21.4267 18.2983 21.6642 18.3439C22.9499 18.5851 23.883 19.4839 23.883 20.4809C23.883 21.673 22.554 22.6804 20.9813 22.6804L7.49493 22.68C5.92237 22.68 4.59323 21.6726 4.59323 20.4804C4.59323 19.2882 5.92176 18.2805 7.49493 18.2805L7.49456 18.2804ZM26.9813 33.4222H25.4251V31.6163H26.9813V33.4222ZM30.2662 33.4222H28.71V31.6163H30.2662V33.4222ZM26.9813 37.5405H25.4251V35.7341H26.9813V37.5405ZM30.2662 37.5405H28.71V35.7341H30.2662V37.5405ZM26.9813 41.6582H25.4251V39.8519H26.9813V41.6582ZM30.2662 41.6582H28.71V39.8519H30.2662V41.6582ZM26.9813 45.7765H25.4251V43.9701H26.9813V45.7765ZM30.2662 45.7765H28.71V43.9701H30.2662V45.7765ZM26.9813 49.8948H25.4251V48.0884H26.9813V49.8948ZM30.2662 49.8948H28.71V48.0884H30.2662V49.8948ZM55.0971 54.4179H50.327V48.8982C52.3572 47.7507 53.5579 46.2909 53.8762 44.549C54.3112 42.1693 53.136 39.4431 50.2827 36.2155C50.2677 36.1977 50.2512 36.1798 50.2338 36.1624C50.1609 36.09 50.0791 36.0326 49.9912 35.9898C49.8665 35.9291 49.732 35.8995 49.5971 35.8995C49.4616 35.8995 49.3262 35.9296 49.2006 35.9912C49.1132 36.034 49.0323 36.0909 48.9598 36.1624C48.9424 36.1798 48.926 36.1967 48.9109 36.2155C46.0582 39.4427 44.883 42.1693 45.3175 44.549C45.6175 46.1913 46.6982 47.5827 48.5205 48.6988V54.4179H40.8163V33.7381L33.654 30.077V26.2587C33.654 25.9747 33.5204 25.7071 33.2933 25.5364C33.0661 25.3657 32.7727 25.312 32.4994 25.3911L22.6884 28.2363C22.3023 28.3482 22.037 28.7014 22.037 29.104V33.6234L14.8742 35.8186V54.4168H9.5473V48.8971C11.5775 47.7496 12.7772 46.2903 13.0956 44.5479C13.5306 42.1682 12.3554 39.4421 9.50215 36.214C9.4871 36.1961 9.47111 36.1796 9.45418 36.1622C9.38034 36.0884 9.29663 36.0301 9.20728 35.9873C9.08407 35.928 8.95051 35.8984 8.81741 35.8984H8.816C8.68197 35.8984 8.547 35.928 8.42238 35.9887C8.33349 36.0315 8.25025 36.0908 8.17689 36.1637C8.16043 36.1801 8.14538 36.1966 8.13033 36.214C5.27763 39.4419 4.10188 42.1677 4.53686 44.5479C4.8369 46.1902 5.91764 47.5817 7.74086 48.6977V54.4168L0.903412 54.4173C0.404446 54.4173 0 54.8217 0 55.3207C0 55.8197 0.404446 56.2241 0.903412 56.2241L14.8737 56.2237H40.8171V56.2232H55.0981C55.597 56.2232 56.0015 55.8187 56.0015 55.3198C55.9996 54.8213 55.5951 54.4173 55.0966 54.4173L55.0971 54.4179ZM47.0938 44.2245C46.8008 42.6222 47.6421 40.5982 49.5957 38.1978C51.5496 40.5982 52.3911 42.6227 52.0975 44.2245C51.9226 45.1806 51.3347 46.0158 50.326 46.7599V45.4247C50.326 44.9257 49.9215 44.5213 49.4225 44.5213C48.9236 44.5213 48.5191 44.9257 48.5191 45.4247V46.4899C47.722 45.8141 47.2479 45.0659 47.0937 44.2246L47.0938 44.2245ZM6.31447 44.2245C6.02148 42.6222 6.86282 40.5982 8.81635 38.1978C10.7703 40.5982 11.6117 42.6227 11.3182 44.2245C11.1433 45.1801 10.5559 46.0158 9.54664 46.7599V45.4247C9.54664 44.9257 9.1422 44.5213 8.64323 44.5213C8.14427 44.5213 7.73982 44.9257 7.73982 45.4247V46.4899C6.94222 45.8141 6.46824 45.0664 6.31437 44.2246L6.31447 44.2245ZM39.0106 34.8428V54.4174H33.6541V32.1039L39.0106 34.8428ZM23.8436 29.7812L31.8487 27.4599V54.4169H23.8436V29.7812ZM16.6807 37.1542L22.0372 35.5115V54.4179H16.6807V37.1542ZM40.1633 14.7926C42.4088 14.7926 44.2359 12.966 44.2359 10.7204C44.2359 8.47484 42.4093 6.64777 40.1633 6.64777C37.9177 6.64777 36.0906 8.47436 36.0906 10.7204C36.0906 12.9655 37.9172 14.7926 40.1633 14.7926ZM40.1633 8.45449C41.4128 8.45449 42.4295 9.47078 42.4295 10.7208C42.4295 11.9703 41.4133 12.9861 40.1633 12.9861C38.9137 12.9861 37.897 11.9698 37.897 10.7208C37.897 9.47073 38.9133 8.45449 40.1633 8.45449ZM39.2599 3.69948V1.12753C39.2599 0.628568 39.6643 0.224121 40.1633 0.224121C40.6622 0.224121 41.0667 0.628568 41.0667 1.12753V3.69899C41.0667 4.19796 40.6622 4.60241 40.1633 4.60241C39.6638 4.60241 39.2599 4.19797 39.2599 3.69948ZM33.3051 3.95249C32.9844 3.57062 33.0342 3.00112 33.4166 2.68043C33.7985 2.35969 34.368 2.40954 34.6887 2.79188L36.3416 4.76235C36.6624 5.14422 36.6125 5.71372 36.2302 6.03441C36.0609 6.17597 35.8554 6.24557 35.6503 6.24557C35.3921 6.24557 35.1363 6.13552 34.9581 5.92295L33.3051 3.95249ZM29.8264 8.89749C29.9129 8.40652 30.3818 8.07826 30.8728 8.16479L33.4052 8.61109C33.8962 8.69762 34.2245 9.1665 34.1379 9.65747C34.0608 10.0958 33.6799 10.4038 33.2496 10.4038C33.1974 10.4038 33.1442 10.3991 33.0915 10.3902L30.5591 9.94387C30.0681 9.85734 29.7399 9.38846 29.8264 8.89749ZM34.8646 13.7786C35.1143 14.2107 34.9666 14.7629 34.5344 15.0121L32.3077 16.2979C32.1652 16.3807 32.0104 16.4188 31.8571 16.4188C31.5449 16.4188 31.2415 16.257 31.0741 15.9668C30.8244 15.5346 30.9721 14.9825 31.4042 14.7333L33.631 13.4475C34.0623 13.1978 34.6149 13.3464 34.8646 13.7786ZM38.0705 16.4686C38.5389 16.6393 38.7811 17.1571 38.6104 17.6264L37.7305 20.0432C37.5969 20.41 37.2508 20.6376 36.8816 20.6376C36.7791 20.6376 36.6747 20.6198 36.5727 20.5831C36.1043 20.4124 35.8621 19.8946 36.0328 19.4253L36.9127 17.0085C37.0834 16.5392 37.6021 16.2993 38.0705 16.4686ZM43.4124 17.0085L44.2923 19.4253C44.4631 19.8937 44.2213 20.4124 43.7525 20.5831C43.6504 20.6202 43.546 20.6376 43.4435 20.6376C43.0748 20.6376 42.7282 20.41 42.5946 20.0432L41.7147 17.6264C41.544 17.158 41.7857 16.6393 42.2546 16.4686C42.7239 16.2993 43.2417 16.5392 43.4124 17.0085ZM48.9214 14.7342C49.3535 14.9839 49.5012 15.5355 49.2515 15.9677C49.0845 16.2574 48.7807 16.4196 48.4685 16.4196C48.3152 16.4196 48.1604 16.3806 48.0179 16.2988L45.7902 15.013C45.358 14.7633 45.2103 14.2107 45.4601 13.7795C45.7093 13.3473 46.2614 13.1987 46.6936 13.4493L48.9214 14.7342ZM46.9203 8.61197L49.4532 8.16567C49.9442 8.07914 50.4131 8.40693 50.4996 8.89837C50.5862 9.38934 50.2584 9.85822 49.7669 9.94475L47.234 10.391C47.1809 10.4004 47.1282 10.4047 47.076 10.4047C46.6461 10.4047 46.2647 10.0966 46.1876 9.65834C46.1011 9.16643 46.4293 8.69802 46.9203 8.61197ZM44.0948 6.0334C43.7125 5.71267 43.6626 5.14316 43.9834 4.76134L45.6364 2.79087C45.9571 2.40853 46.5266 2.35869 46.9084 2.67942C47.2908 3.00016 47.3406 3.56966 47.0199 3.95148L45.3669 5.92195C45.1882 6.13498 44.9319 6.24456 44.6746 6.24456C44.4705 6.2455 44.2641 6.1759 44.0948 6.0334Z" fill="#ED2266"/>
</svg>
