<svg width="17" height="20" viewBox="0 0 17 20" fill="none" xmlns="http://www.w3.org/2000/svg">
<path d="M14.4395 2.47771C12.8532 0.891261 10.7018 -1.6716e-08 8.45844 0C6.21512 1.6716e-08 4.06368 0.891261 2.47742 2.47771C0.891154 4.06417 1.6714e-08 6.21586 0 8.45945C-1.6714e-08 10.703 0.891154 12.8547 2.47742 14.4412L7.73075 19.7051C7.82342 19.7985 7.93367 19.8727 8.05514 19.9233C8.17662 19.9739 8.30691 20 8.4385 20C8.5701 20 8.70039 19.9739 8.82186 19.9233C8.94334 19.8727 9.05359 19.7985 9.14626 19.7051L14.4395 14.3913C16.0191 12.8115 16.9065 10.6688 16.9065 8.43452C16.9065 6.20029 16.0191 4.05757 14.4395 2.47771V2.47771ZM13.014 12.9657L8.45844 17.5417L3.9029 12.9657C3.0029 12.0648 2.39017 10.9172 2.14218 9.66805C1.89418 8.4189 2.02205 7.12427 2.50962 5.9478C2.99719 4.77132 3.82257 3.76583 4.88142 3.05842C5.94027 2.35101 7.18506 1.97344 8.45844 1.97344C9.73181 1.97344 10.9766 2.35101 12.0355 3.05842C13.0943 3.76583 13.9197 4.77132 14.4073 5.9478C14.8948 7.12427 15.0227 8.4189 14.7747 9.66805C14.5267 10.9172 13.914 12.0648 13.014 12.9657V12.9657ZM5.46793 5.39879C4.6632 6.2061 4.21131 7.29956 4.21131 8.43951C4.21131 9.57946 4.6632 10.6729 5.46793 11.4802C6.06579 12.0792 6.8272 12.4882 7.65663 12.656C8.48606 12.8238 9.34657 12.7429 10.1302 12.4235C10.9138 12.104 11.5857 11.5603 12.0615 10.8604C12.5373 10.1605 12.7958 9.33564 12.8046 8.48936C12.8091 7.92429 12.7003 7.36405 12.4846 6.84177C12.2688 6.3195 11.9506 5.84578 11.5486 5.44864C11.1536 5.04446 10.6825 4.7224 10.1625 4.501C9.64245 4.27961 9.0838 4.16324 8.51865 4.15861C7.9535 4.15398 7.39302 4.26117 6.86945 4.47401C6.34589 4.68685 5.86958 5.00114 5.46793 5.39879V5.39879ZM10.1431 10.0645C9.76534 10.4481 9.26609 10.6885 8.7307 10.7447C8.19532 10.8009 7.65705 10.6693 7.20791 10.3725C6.75878 10.0757 6.42668 9.63211 6.2684 9.11752C6.11011 8.60293 6.13546 8.04934 6.34012 7.55137C6.54478 7.05341 6.91603 6.64201 7.39041 6.38751C7.86479 6.13301 8.41284 6.05121 8.94084 6.1561C9.46885 6.26099 9.94404 6.54605 10.2852 6.96255C10.6263 7.37905 10.8121 7.90112 10.811 8.43951C10.7965 9.0549 10.5383 9.63937 10.0933 10.0645H10.1431Z" fill="#ED2266"/>
</svg>
