<svg width="21" height="20" viewBox="0 0 21 20" fill="none" xmlns="http://www.w3.org/2000/svg">
<path d="M17.57 11.0318C17.3486 11.0318 17.1171 10.9614 16.8957 10.9111C16.4473 10.8122 16.0067 10.6811 15.5773 10.5185C15.1104 10.3486 14.5972 10.3575 14.1365 10.5433C13.6757 10.7291 13.2999 11.0788 13.0814 11.525L12.86 11.978C11.8798 11.4326 10.979 10.7553 10.183 9.96493C9.39273 9.16878 8.71547 8.26792 8.17018 7.28757L8.59287 7.00574C9.03907 6.78724 9.38871 6.41142 9.57451 5.95059C9.7603 5.48976 9.76912 4.9765 9.59927 4.50956C9.43948 4.07919 9.30836 3.63871 9.20677 3.19101C9.15645 2.96957 9.1162 2.73807 9.086 2.50657C8.96379 1.79759 8.59249 1.15555 8.03896 0.69607C7.48543 0.236588 6.78606 -0.0101396 6.06679 0.000319374H3.04757C2.61384 -0.00375357 2.18432 0.0856863 1.78826 0.26255C1.3922 0.439414 1.03889 0.699549 0.752387 1.02525C0.465883 1.35094 0.252912 1.73456 0.12797 2.14997C0.00302797 2.56539 -0.0309505 3.00285 0.0283476 3.43257C0.564499 7.6493 2.49005 11.5672 5.50084 14.5674C8.51162 17.5676 12.436 19.4791 16.6542 20H17.0366C17.7788 20.0011 18.4953 19.7288 19.0494 19.235C19.3678 18.9502 19.6222 18.6011 19.7956 18.2107C19.9691 17.8203 20.0578 17.3976 20.0558 16.9704V13.9508C20.0435 13.2516 19.7889 12.5784 19.3356 12.0461C18.8822 11.5138 18.2582 11.1553 17.57 11.0318V11.0318ZM18.0732 17.071C18.073 17.2139 18.0424 17.3552 17.9834 17.4853C17.9244 17.6155 17.8384 17.7316 17.731 17.8259C17.6186 17.923 17.4871 17.9955 17.345 18.0389C17.2029 18.0822 17.0533 18.0954 16.9058 18.0775C13.1367 17.5942 9.63574 15.8697 6.95516 13.176C4.27457 10.4824 2.56692 6.97287 2.10154 3.20107C2.08553 3.05363 2.09956 2.90448 2.14281 2.76262C2.18605 2.62076 2.25761 2.48914 2.35315 2.37572C2.44746 2.26836 2.56355 2.18231 2.69369 2.1233C2.82384 2.0643 2.96506 2.03368 3.10795 2.0335H6.12717C6.36121 2.02829 6.58974 2.10484 6.77343 2.24998C6.95712 2.39511 7.08447 2.59974 7.13358 2.82866C7.17383 3.10378 7.22415 3.37554 7.28454 3.64394C7.4008 4.17453 7.55552 4.69594 7.74748 5.20406L6.33851 5.8583C6.21805 5.91358 6.10968 5.99212 6.01964 6.0894C5.9296 6.18668 5.85967 6.30079 5.81385 6.42517C5.76803 6.54956 5.74722 6.68177 5.75263 6.81422C5.75804 6.94667 5.78956 7.07675 5.84538 7.19698C7.2938 10.2999 9.78772 12.7941 12.8902 14.2427C13.1352 14.3433 13.4101 14.3433 13.6551 14.2427C13.7806 14.1978 13.8959 14.1284 13.9944 14.0385C14.0929 13.9487 14.1725 13.8402 14.2287 13.7193L14.8527 12.3101C15.373 12.4962 15.904 12.6508 16.4428 12.7731C16.7112 12.8335 16.9829 12.8839 17.258 12.9241C17.4869 12.9732 17.6915 13.1006 17.8366 13.2843C17.9818 13.468 18.0583 13.6966 18.0531 13.9306L18.0732 17.071Z" fill="#ED2266"/>
</svg>
