<svg width="20" height="17" viewBox="0 0 20 17" fill="none" xmlns="http://www.w3.org/2000/svg">
<path d="M17 0.40918H3C2.20435 0.40918 1.44129 0.725288 0.87868 1.28796C0.316071 1.85064 0 2.61379 0 3.40954V13.4107C0 14.2065 0.316071 14.9696 0.87868 15.5323C1.44129 16.095 2.20435 16.4111 3 16.4111H17C17.7956 16.4111 18.5587 16.095 19.1213 15.5323C19.6839 14.9696 20 14.2065 20 13.4107V3.40954C20 2.61379 19.6839 1.85064 19.1213 1.28796C18.5587 0.725288 17.7956 0.40918 17 0.40918V0.40918ZM3 2.40942H17C17.2652 2.40942 17.5196 2.51479 17.7071 2.70235C17.8946 2.8899 18 3.14429 18 3.40954L10 8.29012L2 3.40954C2 3.14429 2.10536 2.8899 2.29289 2.70235C2.48043 2.51479 2.73478 2.40942 3 2.40942V2.40942ZM18 13.4107C18 13.676 17.8946 13.9304 17.7071 14.1179C17.5196 14.3055 17.2652 14.4108 17 14.4108H3C2.73478 14.4108 2.48043 14.3055 2.29289 14.1179C2.10536 13.9304 2 13.676 2 13.4107V5.68981L9.48 10.2604C9.63202 10.3481 9.80446 10.3943 9.98 10.3943C10.1555 10.3943 10.328 10.3481 10.48 10.2604L18 5.68981V13.4107Z" fill="#ED2266"/>
</svg>
