<svg width="17" height="13" viewBox="0 0 17 13" fill="none" xmlns="http://www.w3.org/2000/svg">
<path d="M14.1251 0.0992432H2.92515C2.28863 0.0992432 1.67818 0.35213 1.22809 0.802271C0.778003 1.25241 0.525146 1.86293 0.525146 2.49953V10.5005C0.525146 11.1371 0.778003 11.7476 1.22809 12.1977C1.67818 12.6479 2.28863 12.9008 2.92515 12.9008H14.1251C14.7617 12.9008 15.3721 12.6479 15.8222 12.1977C16.2723 11.7476 16.5251 11.1371 16.5251 10.5005V2.49953C16.5251 1.86293 16.2723 1.25241 15.8222 0.802271C15.3721 0.35213 14.7617 0.0992432 14.1251 0.0992432ZM2.92515 1.69943H14.1251C14.3373 1.69943 14.5408 1.78373 14.6908 1.93378C14.8409 2.08382 14.9251 2.28733 14.9251 2.49953L8.52515 6.40399L2.12515 2.49953C2.12515 2.28733 2.20943 2.08382 2.35946 1.93378C2.50949 1.78373 2.71297 1.69943 2.92515 1.69943ZM14.9251 10.5005C14.9251 10.7127 14.8409 10.9162 14.6908 11.0662C14.5408 11.2163 14.3373 11.3006 14.1251 11.3006H2.92515C2.71297 11.3006 2.50949 11.2163 2.35946 11.0662C2.20943 10.9162 2.12515 10.7127 2.12515 10.5005V4.32375L8.10915 7.98018C8.23076 8.05041 8.36872 8.08737 8.50915 8.08737C8.64958 8.08737 8.78753 8.05041 8.90915 7.98018L14.9251 4.32375V10.5005Z" fill="#ED2266"/>
</svg>
