<svg width="14" height="17" viewBox="0 0 14 17" fill="none" xmlns="http://www.w3.org/2000/svg">
<path d="M11.5516 2.48217C10.2826 1.21301 8.56141 0.5 6.76675 0.5C4.9721 0.5 3.25095 1.21301 1.98194 2.48217C0.712923 3.75133 1.33712e-08 5.47269 0 7.26756C-1.33712e-08 9.06243 0.712923 10.7838 1.98194 12.0529L6.1846 16.2641C6.25873 16.3388 6.34694 16.3982 6.44411 16.4387C6.54129 16.4792 6.64553 16.5 6.7508 16.5C6.85608 16.5 6.96031 16.4792 7.05749 16.4387C7.15467 16.3982 7.24287 16.3388 7.317 16.2641L11.5516 12.0131C12.8153 10.7492 13.5252 9.035 13.5252 7.24762C13.5252 5.46023 12.8153 3.74605 11.5516 2.48217ZM10.4112 10.8725L6.76675 14.5334L3.12232 10.8725C2.40232 10.1518 1.91214 9.23375 1.71374 8.23444C1.51535 7.23512 1.61764 6.19942 2.0077 5.25824C2.39775 4.31706 3.05805 3.51266 3.90514 2.94673C4.75222 2.3808 5.74805 2.07875 6.76675 2.07875C7.78545 2.07875 8.78128 2.3808 9.62837 2.94673C10.4754 3.51266 11.1357 4.31706 11.5258 5.25824C11.9159 6.19942 12.0182 7.23512 11.8198 8.23444C11.6214 9.23375 11.1312 10.1518 10.4112 10.8725ZM4.37434 4.81904C3.73056 5.46488 3.36905 6.33964 3.36905 7.25161C3.36905 8.16357 3.73056 9.03833 4.37434 9.68418C4.85263 10.1633 5.46176 10.4906 6.12531 10.6248C6.78885 10.7591 7.47726 10.6944 8.10417 10.4388C8.73107 10.1832 9.26856 9.74821 9.64919 9.18829C10.0298 8.62838 10.2366 7.96851 10.2437 7.29148C10.2473 6.83943 10.1602 6.39124 9.98765 5.97342C9.81507 5.5556 9.56047 5.17663 9.23891 4.85891C8.92285 4.53556 8.54597 4.27792 8.12996 4.1008C7.71396 3.92368 7.26704 3.83059 6.81492 3.82689C6.3628 3.82318 5.91442 3.90893 5.49556 4.0792C5.07671 4.24948 4.69566 4.50091 4.37434 4.81904ZM8.11447 8.55164C7.81227 8.85849 7.41287 9.05083 6.98456 9.09578C6.55625 9.14072 6.12564 9.03547 5.76633 8.79803C5.40703 8.56058 5.14135 8.20569 5.01472 7.79402C4.88809 7.38235 4.90837 6.93947 5.0721 6.5411C5.23582 6.14273 5.53283 5.81361 5.91233 5.61001C6.29183 5.40641 6.73027 5.34097 7.15268 5.42488C7.57508 5.50879 7.95523 5.73684 8.22812 6.07004C8.50101 6.40324 8.64971 6.8209 8.64878 7.25161C8.63718 7.74392 8.43067 8.2115 8.0746 8.55164H8.11447Z" fill="#ED2266"/>
</svg>
