<svg width="166" height="46" viewBox="0 0 166 46" fill="none" xmlns="http://www.w3.org/2000/svg">
<path d="M30.4152 7.40525H38.5943V15.5843C36.705 12.1412 33.8588 9.29448 30.4152 7.40525ZM38.5943 41.8325L36.9749 38.4717L37.0035 38.4537C36.9604 38.3845 36.9124 38.3195 36.8688 38.2507L36.7748 38.0554C37.4507 37.1881 38.0622 36.268 38.5943 35.2979V41.8325ZM30.4152 43.4775C32.0835 42.5617 33.6107 41.4206 34.9578 40.0963L36.5868 43.4775H30.4152ZM4.53047 43.4775L6.15901 40.0963C7.50653 41.4206 9.03332 42.5617 10.7016 43.4775H4.53047ZM2.52253 35.2979C3.05455 36.268 3.66604 37.1881 4.34198 38.0554L2.52253 41.8325V35.2979ZM2.52253 7.40525H10.7016C7.25844 9.29448 4.41176 12.1412 2.52253 15.5843V7.40525ZM23.0506 9.56825C23.6573 9.12538 24.1438 8.52842 24.4471 7.83213C32.5283 9.61573 38.5943 16.8315 38.5943 25.4414C38.5943 29.1544 37.4653 32.6087 35.5344 35.4806L23.0506 9.56825ZM20.5378 31.7908C25.6497 31.7908 30.3663 34.0551 33.5429 37.9401C30.2597 41.3494 25.6541 43.4775 20.5582 43.4775C15.4535 43.4775 10.8411 41.3421 7.55692 37.9222C10.7394 34.058 15.4729 31.7908 20.5378 31.7908ZM18.0666 9.56776L5.58241 35.4806C3.65151 32.6087 2.52253 29.1544 2.52253 25.4414C2.52253 16.8311 8.58851 9.61525 16.6707 7.83213C16.974 8.52794 17.46 9.12489 18.0666 9.56776ZM20.642 10.3808L31.3179 32.5404C28.1878 30.437 24.4665 29.2683 20.5378 29.2683C16.6523 29.2683 12.9392 30.4326 9.8081 32.522L20.4748 10.3808C20.5029 10.3813 20.5305 10.3847 20.5586 10.3847C20.5867 10.3847 20.6139 10.3813 20.642 10.3808ZM20.5586 4.4258C21.5064 4.4258 22.2768 5.19671 22.2768 6.14399C22.2768 7.09127 21.5064 7.86218 20.5586 7.86218C19.6114 7.86218 18.8404 7.09127 18.8404 6.14399C18.8404 5.19671 19.6114 4.4258 20.5586 4.4258ZM24.608 4.88273C24.1942 3.55654 23.1456 2.50847 21.8194 2.09467V0H19.2969V2.09516C17.9717 2.50896 16.9236 3.55702 16.5098 4.88273H0V46H0.514584H40.6022H41.1168V4.88273H24.608Z" fill="#ED2266"/>
<path d="M59.4937 25.5651H66.0854L62.9136 17.7044H62.5826L59.4937 25.5651ZM64.403 14.7259L71.7395 31.2745H68.5677L67.1887 28.2403H58.3627L57.0114 31.2745H53.8948L61.2312 14.7259H64.403Z" fill="black"/>
<path d="M81.4471 20.8488L85.5565 14.7256H89.0316L83.378 22.6968L89.694 31.2742H85.9979L81.309 24.5996L76.6206 31.2742H73.2002L79.351 22.7245L73.4211 14.7256H77.1167L81.4471 20.8488Z" fill="black"/>
<path d="M92.6626 14.7257H105.516V17.4285H95.6416V21.2622H104.467V23.9378H95.6416V28.5991H105.901V31.2743H92.6626V14.7257Z" fill="black"/>
<path d="M122.027 31.2744H109.146V14.7258H112.097V28.6539H122.027V31.2744Z" fill="black"/>
<path d="M127.754 31.2746H124.858V14.726H127.754V31.2746Z" fill="black"/>
<path d="M135.219 27.1096C136.239 28.2405 137.756 28.93 139.439 28.93C141.093 28.93 142.583 28.2682 143.659 27.1372C144.624 26.1168 145.203 24.6825 145.203 23.0002C145.203 21.2626 144.596 19.8284 143.631 18.8351C142.555 17.7323 141.066 17.0699 139.439 17.0699C137.784 17.0699 136.294 17.7323 135.219 18.8627C134.254 19.8836 133.646 21.3174 133.646 23.0002C133.646 24.6549 134.254 26.0892 135.219 27.1096ZM145.699 16.8494C147.272 18.477 148.154 20.6003 148.154 23.0002C148.154 25.3997 147.327 27.4682 145.81 29.0129C144.238 30.64 142.087 31.5776 139.439 31.5776C136.791 31.5776 134.529 30.4743 132.985 28.8196C131.578 27.3025 130.696 25.2063 130.696 23.0002C130.696 20.6831 131.55 18.6146 133.012 17.0699C134.557 15.4152 136.791 14.4224 139.439 14.4224C142.004 14.4224 144.155 15.3047 145.699 16.8494Z" fill="black"/>
<path d="M154.102 24.1033H159.343C160.308 24.1033 161.163 23.7448 161.687 23.1105C162.266 22.4763 162.57 21.6487 162.57 20.7934C162.57 19.8835 162.294 19.1387 161.742 18.5597C161.191 17.8702 160.225 17.4288 159.205 17.4288H154.102V24.1033ZM164.362 24.4343C163.783 25.179 163.066 25.7581 162.101 26.1719C163.093 27.7994 164.224 29.6194 165.217 31.2746H161.853L159.177 26.7785H154.102V31.2746H151.123V14.726H159.287C161.025 14.726 162.57 15.3603 163.756 16.4912C164.859 17.594 165.548 19.0282 165.548 20.7934C165.548 22.2001 165.162 23.4138 164.362 24.4343Z" fill="black"/>
</svg>
