<svg width="10" height="13" viewBox="0 0 10 13" fill="none" xmlns="http://www.w3.org/2000/svg">
<path d="M8.5 0H1.5C0.671875 0 0 0.545898 0 1.21875V11.7812C0 12.4541 0.671875 13 1.5 13H8.5C9.32812 13 10 12.4541 10 11.7812V1.21875C10 0.545898 9.32812 0 8.5 0ZM5 12.1875C4.44688 12.1875 4 11.8244 4 11.375C4 10.9256 4.44688 10.5625 5 10.5625C5.55312 10.5625 6 10.9256 6 11.375C6 11.8244 5.55312 12.1875 5 12.1875ZM8.5 9.44531C8.5 9.61289 8.33125 9.75 8.125 9.75H1.875C1.66875 9.75 1.5 9.61289 1.5 9.44531V1.52344C1.5 1.35586 1.66875 1.21875 1.875 1.21875H8.125C8.33125 1.21875 8.5 1.35586 8.5 1.52344V9.44531Z" fill="#ED2266"/>
</svg>
