<svg width="46" height="46" viewBox="0 0 46 46" fill="none" xmlns="http://www.w3.org/2000/svg">
<path d="M30.3445 41.136H4.44214V17.6554H5.76051V39.8171H30.3451L30.3445 41.136Z" fill="#ED2266"/>
<path d="M36.8049 17.6554H38.1238V25.4908H36.8049V17.6554Z" fill="#ED2266"/>
<path d="M40.1169 19.8119L21.6049 9.12477L2.44327 19.7814L0 15.1148L20.5261 3.71216H22.7034L42.5601 15.1254L40.1169 19.8119ZM1.78438 15.6464L3.00602 17.9875L21.6209 7.60698L39.5862 17.9771L40.8028 15.636L22.3515 5.03099H20.8692L1.78438 15.6464Z" fill="#ED2266"/>
<path d="M35.4661 40.7013C34.8021 40.7319 34.1477 40.5357 33.6106 40.1441C33.4901 40.0456 33.3787 39.936 33.2783 39.8169C32.5295 38.8892 32.028 37.7866 31.8216 36.6124C31.7632 36.1556 31.7632 35.6938 31.8216 35.2374C31.8645 34.9745 31.9417 34.7181 32.0516 34.4758C32.1174 34.337 32.1671 34.1914 32.2 34.0413C32.2114 33.715 32.4546 33.4439 32.7777 33.3974C33.0994 33.3536 33.4056 33.5512 33.4983 33.8624C33.5206 33.9423 33.548 34.0208 33.58 34.0974C33.6863 33.2929 33.7374 32.4815 33.7333 31.6697C33.7305 31.4009 33.8926 31.1572 34.1422 31.0564C34.3895 30.9551 34.6734 31.0112 34.8627 31.1997L35.1644 31.5063L35.5272 29.6052V29.6048C35.5833 29.2904 35.8567 29.0613 36.1766 29.0613C36.496 29.0613 36.7694 29.2904 36.8255 29.6048L37.1016 31.0514L38.0827 29.4465C38.2329 29.201 38.5245 29.0814 38.8033 29.1503C39.0853 29.2179 39.2916 29.4593 39.3144 29.7481L39.4627 31.9559L39.6261 31.7925H39.6265C39.8319 31.5849 40.1495 31.537 40.4069 31.6752C40.6643 31.8135 40.8003 32.1047 40.7405 32.3903L40.5411 33.4125C40.8537 33.3555 41.1649 33.5175 41.2977 33.8064C41.3274 33.883 41.3447 33.9643 41.3488 34.0464C41.3844 34.2153 41.5227 34.7314 41.6094 35.0686C41.7057 35.3881 41.786 35.7121 41.8499 36.0397C42.0032 37.6703 40.9965 39.2548 39.2943 40.0825C38.0983 40.5753 36.8091 40.8003 35.5172 40.7419L35.4661 40.7013ZM34.2805 38.9585C34.3317 39.0165 34.3828 39.0676 34.4339 39.1119L34.4334 39.1114C34.736 39.3099 35.0951 39.403 35.4556 39.3774C36.55 39.4404 37.6452 39.2661 38.6656 38.8663C39.8768 38.2836 40.5923 37.2153 40.4851 36.137C40.4851 36.0603 40.3828 35.7381 40.2856 35.3908V35.3552L39.9279 35.713V35.7126C39.7239 35.9202 39.4076 35.9681 39.1512 35.8303C38.9052 35.6829 38.7815 35.3945 38.8445 35.1147L39.049 34.0925C38.9257 34.1309 38.7939 34.1309 38.6706 34.0925C38.4265 34.004 38.2581 33.779 38.2412 33.5203L38.134 31.9309L37.3112 33.2032C37.1852 33.4086 36.9575 33.529 36.717 33.5172C36.4765 33.5058 36.2616 33.3638 36.1562 33.1471C36.0731 33.3091 35.9298 33.4318 35.7573 33.4893C35.5218 33.5573 35.2676 33.493 35.0929 33.3209L34.9906 33.2187C34.8168 35.892 34.1829 35.892 33.7795 35.892V35.8916C33.5345 35.8925 33.2958 35.8135 33.0996 35.667C33.085 35.9294 33.095 36.1932 33.1301 36.4538C33.3104 37.3679 33.7042 38.2263 34.2801 38.9583L34.2805 38.9585Z" fill="#ED2266"/>
<path d="M36.5444 43.6968C34.035 43.6982 31.6277 42.7024 29.8525 40.9286C28.0774 39.1552 27.0798 36.749 27.0789 34.2395C27.0779 31.7301 28.0737 29.3233 29.848 27.5481C31.6218 25.7734 34.0281 24.7759 36.5376 24.7754C39.047 24.7749 41.4538 25.7716 43.2285 27.5459C45.0028 29.3202 45.9999 31.7269 45.9999 34.2364C45.9972 36.7436 45.0005 39.1476 43.2277 40.921C41.4552 42.6949 39.0517 43.6929 36.5445 43.697L36.5444 43.6968ZM36.5444 26.1042V26.1037C34.3858 26.1037 32.3163 26.9612 30.7903 28.4876C29.2643 30.0141 28.4073 32.0841 28.4076 34.2427C28.4081 36.4008 29.266 38.4707 30.7925 39.9963C32.319 41.5219 34.3894 42.3784 36.5475 42.3775C38.7061 42.3766 40.7755 41.5182 42.3011 39.9912C43.8263 38.4643 44.6824 36.3939 44.681 34.2358C44.6782 32.0791 43.8203 30.0114 42.2947 28.4867C40.7691 26.962 38.7009 26.105 36.5442 26.1037L36.5444 26.1042Z" fill="#ED2266"/>
<path d="M19.856 40.7013H10.7327V28.4032H19.856V40.7013ZM12.036 39.3775H18.537V29.7275H12.036V39.3775Z" fill="#ED2266"/>
<path d="M6.75172 12.4882H5.43335V2H14.3467V8.27162H13.0284V3.32386H6.75172V12.4882Z" fill="#ED2266"/>
</svg>
