<svg width="47" height="46" viewBox="0 0 47 46" fill="none" xmlns="http://www.w3.org/2000/svg">
<path d="M10.5815 0V19.0343H9.52341V1.05746H4.76163V19.0343H3.70351V0H10.5815ZM38.0604 13.2182C40.0324 13.2182 42.1218 13.6745 43.6158 15.614C45.1095 17.5536 45.9965 20.8438 45.9965 26.436C45.9965 27.063 45.8409 27.7501 45.3186 28.2701C44.9155 28.6718 44.2756 28.8831 43.5 28.9805L45.8147 37.3739C46.1455 38.5548 46.0223 39.6387 45.5336 40.4472C45.045 41.2556 44.1698 41.769 43.1858 41.769H34.3568C34.0798 41.769 33.8279 41.5171 33.8275 41.2401V36.4818C33.8275 36.2048 34.0794 35.9532 34.3568 35.9529H34.7204L34.0094 33.276C32.8074 33.1779 31.251 32.6361 30.3389 31.8549C29.4711 31.1114 28.7929 30.1492 28.6195 29.0793H24.3044C24.1853 29.0793 24.0669 29.038 23.9736 28.9635L21.3779 26.8981L13.045 24.2877C12.831 24.225 12.6695 24.0148 12.6647 23.792L12.6481 22.2058H2.47952C2.34306 22.2006 2.20954 22.1397 2.11586 22.0405C1.78578 21.7141 1.5538 21.3265 1.5538 20.8839C1.5538 20.4414 1.78578 20.0371 2.11586 19.7107C2.21249 19.6174 2.34527 19.5632 2.47952 19.5621H12.6481L12.6647 17.9592C12.6717 17.7324 12.8417 17.5199 13.0616 17.4635L21.4111 15.3815L23.9737 13.3328C24.0666 13.2587 24.1854 13.217 24.3045 13.217L38.0604 13.2182ZM38.0604 14.2756H34.886V19.034H33.8279V14.2756H31.7116V19.034H30.6535V14.2756H28.5373V19.034H27.4792V14.2756H24.4866L22.1886 16.1097V26.1886L24.4866 28.0228H33.2991C33.5274 28.0228 33.7475 28.1839 33.8117 28.4026L35.9279 36.3336C36.0205 36.6489 35.7443 37.014 35.4153 37.0111H34.886V40.7121H43.1858C43.8268 40.7121 44.3129 40.4174 44.6241 39.9026C44.9353 39.3877 45.0571 38.6109 44.7893 37.6554L42.3094 28.6837C42.229 28.3724 42.5005 28.0228 42.8221 28.0228C43.8072 28.0228 44.3087 27.7919 44.5746 27.5271C44.8405 27.2623 44.9383 26.9001 44.9383 26.4365C44.9383 20.9588 44.0336 17.8959 42.7723 16.2584C41.511 14.621 39.8819 14.2757 38.0603 14.2757L38.0604 14.2756ZM2.11619 14.8045C2.4083 14.8045 2.64544 15.0413 2.64544 15.3334C2.64544 15.6255 2.40866 15.8622 2.11619 15.8622C1.82409 15.8622 1.58694 15.6255 1.58694 15.3334C1.58694 15.0413 1.82372 14.8045 2.11619 14.8045ZM1.58694 16.3908C2.17151 16.3908 2.64506 16.8643 2.64506 17.4481C2.64506 18.0323 2.17114 18.5055 1.58694 18.5055C1.00238 18.5055 0.528824 18.0319 0.528824 17.4481C0.528824 16.8639 1.00274 16.3908 1.58694 16.3908ZM12.6808 20.6207H2.76054C2.54036 20.901 2.70042 20.8988 2.77713 21.1496H12.6804L12.6808 20.6207ZM10.5812 22.7354V45.4708H3.70318V22.7354H4.7613V44.4133H9.52308V22.7354H10.5812ZM2.11624 23.2643C2.40834 23.2643 2.64549 23.5011 2.64549 23.7932C2.64549 24.0853 2.40871 24.3221 2.11624 24.3221C1.82414 24.3221 1.58699 24.0853 1.58699 23.7932C1.58699 23.5011 1.82377 23.2643 2.11624 23.2643ZM1.05812 24.3217C1.64269 24.3217 2.11624 24.7952 2.11624 25.379C2.11624 25.9632 1.64232 26.4364 1.05812 26.4364C0.473553 26.4364 0 25.9628 0 25.379C0 24.7948 0.473921 24.3217 1.05812 24.3217Z" fill="#ED2266"/>
</svg>
