<svg width="46" height="46" viewBox="0 0 46 46" fill="none" xmlns="http://www.w3.org/2000/svg">
<path d="M28.0074 28.0605C28.0935 28.0382 28.184 28.0382 28.2701 28.0605H35.0185V28.0602H35.0203L35.0309 28.0605H40.038C41.3877 28.0605 42.6153 27.5078 43.5052 26.6175C44.3954 25.7273 44.9478 24.4997 44.9478 23.1497C44.9478 21.8 44.3954 20.5724 43.5052 19.6825C42.615 18.7923 41.3877 18.2395 40.038 18.2395H5.96444C4.61475 18.2395 3.38752 18.792 2.4973 19.6822C1.60708 20.5724 1.05465 21.7996 1.05465 23.1497C1.05465 24.4997 1.60708 25.7269 2.4973 26.6175C3.38752 27.5077 4.61475 28.0605 5.96444 28.0605H28.008H28.0074ZM20.7532 33.808L17.285 39.2565L19.5811 41.5526L25.0302 38.0847L20.7531 33.8076L20.7532 33.808ZM26.1173 38.6372L19.8283 42.6394L19.8272 42.64L19.819 42.6462L19.8159 42.6483L19.8104 42.6524L19.808 42.6541L19.8077 42.6544L19.8022 42.6586L19.7995 42.6603L19.7978 42.6613L19.7936 42.6644L19.7882 42.6678L19.7875 42.6682L19.7851 42.6695L19.7796 42.673L19.7772 42.6743L19.7765 42.6747L19.7683 42.6798L19.7669 42.6805L19.7652 42.6815L19.7597 42.685L19.7566 42.6867L19.7563 42.687L19.7535 42.6884L19.748 42.6918L19.745 42.6932L19.7419 42.6949L19.7388 42.6963L19.736 42.6976L19.735 42.6983L19.7329 42.6994L19.7268 42.7021L19.724 42.7035H19.7237L19.7209 42.7048L19.7148 42.7076L19.7127 42.7086L19.7117 42.709L19.7024 42.7131L19.6993 42.7141V42.7144L13.814 45.731C13.5561 45.8627 13.2403 45.7605 13.1083 45.5026C13.0287 45.3469 13.0346 45.17 13.1083 45.0253C14.0982 43.0457 15.1322 41.0753 16.1417 39.1043C16.1472 39.0937 16.1527 39.083 16.1588 39.0724L16.1643 39.0628L16.1664 39.0597L16.1708 39.0529L20.1897 32.7392C20.2144 32.6902 20.247 32.6439 20.2881 32.6031L23.7745 29.1167H11.1633V41.0028C11.1633 41.4088 11.0697 41.7959 10.9024 42.1436C10.7546 42.4505 10.5502 42.7248 10.303 42.9518V45.4729C10.303 45.6667 10.1456 45.8241 9.95185 45.8241H7.05189C6.85815 45.8241 6.70075 45.6667 6.70075 45.4729V42.9237C6.46037 42.6964 6.26251 42.4255 6.12054 42.1244C5.95938 41.7825 5.86919 41.4022 5.86919 41.0028V29.1159C4.26572 29.0908 2.81078 28.4253 1.75121 27.3654C0.670674 26.2848 0 24.7935 0 23.1531C0 21.5123 0.670385 20.0213 1.75086 18.9409C2.77171 17.92 4.15915 17.2651 5.69292 17.1958V13.9659C5.69292 13.7149 5.86849 13.5047 6.10372 13.4519L4.41115 8.57196C4.37995 8.48178 4.38817 8.38747 4.42624 8.30758L4.42521 8.30689L8.20197 0.376083C8.28529 0.201198 8.49481 0.126792 8.66969 0.210117C8.75199 0.249209 8.812 0.316416 8.84389 0.394605L12.608 8.30795C12.6464 8.38922 12.6505 8.47769 12.6269 8.55759L11.1328 13.5473C11.2583 13.6436 11.3389 13.7948 11.3389 13.9653V17.1886H22.872L19.865 14.182L19.8609 14.1779L17.515 11.8317C17.5089 11.8262 17.503 11.8207 17.4972 11.8149C17.4914 11.809 17.4859 11.8032 17.4804 11.797L14.8627 9.17931C14.6569 8.97356 14.6569 8.64026 14.8627 8.43451L23.1429 0.154312C23.3486 -0.0514374 23.6819 -0.0514374 23.8877 0.154312L41.0004 17.267C42.2568 17.4735 43.3839 18.0753 44.2488 18.9398C45.3293 20.0203 46 21.5113 46 23.152C46 24.7928 45.3293 26.2838 44.2488 27.3643C43.1683 28.4447 41.6773 29.1159 40.0369 29.1159H35.6497L26.2365 38.5483C26.1998 38.5853 26.159 38.6155 26.1155 38.6392L26.1173 38.6372ZM28.3403 29.1144L22.9439 34.5097L25.8662 37.432L34.1667 29.1144H28.34H28.3403ZM25.2661 29.1144L21.4073 32.9731L22.1991 33.7649L26.8503 29.1143L25.2661 29.1144ZM10.4621 29.1144H6.57245V41.0004C6.57245 41.2957 6.63795 41.5744 6.75522 41.8231C6.87421 42.0758 7.04532 42.299 7.25381 42.478C7.34469 42.5414 7.404 42.6467 7.404 42.766V45.1195H9.60169V42.7897H9.60272C9.60272 42.6876 9.64764 42.5861 9.73337 42.5168C9.96071 42.334 10.1462 42.1025 10.2724 41.8392C10.3938 41.5868 10.462 41.3019 10.462 41.0001V29.1141L10.4621 29.1144ZM6.74741 17.1871H10.2862V14.4904H6.74741V17.1871ZM24.3623 17.1871H39.4331L23.516 1.26998L15.9806 8.80576L17.8707 10.6959L20.4569 8.10963C20.6627 7.90388 20.996 7.90388 21.2017 8.10963C21.4075 8.31538 21.4075 8.64868 21.2017 8.85443L18.6155 11.4407L20.2361 13.0612L21.6975 11.5998C21.9033 11.3941 22.2369 11.3941 22.4423 11.5998C22.6481 11.8056 22.6481 12.1389 22.4423 12.3446L20.9809 13.806L22.6015 15.4266L25.1894 12.8401C25.3951 12.6357 25.7274 12.6367 25.9321 12.8421C26.1365 13.0479 26.1358 13.3805 25.93 13.5849L23.3442 16.1693L24.3623 17.1871ZM37.4905 20.8068C38.1379 20.8068 38.7239 21.0691 39.1481 21.4933C39.5723 21.9171 39.8346 22.5035 39.8346 23.1509C39.8346 23.7983 39.5723 24.384 39.1481 24.8082C38.7236 25.2321 38.1375 25.4944 37.4905 25.4944C36.843 25.4944 36.257 25.2321 35.8328 24.8082C35.4086 24.384 35.1463 23.798 35.1463 23.1509C35.1463 22.5035 35.4086 21.9175 35.8328 21.4933C36.257 21.0691 36.843 20.8068 37.4905 20.8068ZM38.6516 21.9899C38.3546 21.6929 37.9442 21.5091 37.4905 21.5091C37.0371 21.5091 36.6263 21.6929 36.3293 21.9899C36.0324 22.2868 35.8489 22.6973 35.8489 23.151C35.8489 23.6043 36.0327 24.0151 36.3297 24.3118C36.6266 24.6087 37.0371 24.7922 37.4908 24.7922C37.9445 24.7922 38.3549 24.6084 38.6519 24.3118C38.9489 24.0148 39.1323 23.6044 39.1323 23.151C39.1323 22.6973 38.9485 22.2869 38.6519 21.9899H38.6516ZM8.51074 20.8068C9.15815 20.8068 9.7442 21.0691 10.1684 21.4933C10.5925 21.9171 10.8549 22.5035 10.8549 23.1509C10.8549 23.7983 10.5925 24.384 10.1684 24.8082C9.7442 25.2321 9.15815 25.4944 8.51074 25.4944C7.86333 25.4944 7.27728 25.2321 6.85345 24.8082C6.42928 24.3844 6.16695 23.798 6.16695 23.1509C6.16695 22.5042 6.42928 21.9189 6.85311 21.4947L6.85379 21.494L6.85311 21.4933C7.27728 21.0692 7.86333 20.8072 8.51075 20.8072L8.51074 20.8068ZM9.67186 21.9899C9.37491 21.6929 8.9641 21.5091 8.51074 21.5091C8.05707 21.5091 7.6466 21.6929 7.34961 21.9895L7.34892 21.9888C7.05265 22.2858 6.8692 22.6963 6.8692 23.1506C6.8692 23.6043 7.053 24.0147 7.34962 24.3114C7.64657 24.6083 8.05704 24.7918 8.51074 24.7918C8.96407 24.7918 9.37488 24.608 9.67187 24.3114C9.96883 24.0144 10.1526 23.6039 10.1526 23.1506C10.1526 22.6969 9.96883 22.2864 9.67221 21.9895L9.67186 21.9899ZM8.83037 8.53864C8.83105 8.68334 8.71412 8.8013 8.56907 8.80199C8.42437 8.80268 8.3064 8.68575 8.30572 8.54069L8.27863 1.84676L5.12014 8.47863L6.84019 13.4367H10.4339L11.917 8.48407L8.80375 1.93894L8.83037 8.53864ZM18.6227 42.0855L16.7515 40.2143L14.785 44.0525L18.6227 42.0855Z" fill="#ED2266"/>
</svg>
