<svg width="46" height="46" viewBox="0 0 46 46" fill="none" xmlns="http://www.w3.org/2000/svg">
<path d="M27.4843 14.9394L31.4629 8.30823C31.5889 8.0982 31.8157 7.9697 32.0606 7.9697H45.303C45.6879 7.9697 46 8.28178 46 8.66667V30.9697C46 31.3546 45.6879 31.6667 45.303 31.6667H32.0606C31.8157 31.6667 31.5889 31.5382 31.4629 31.3281L27.4843 24.697H20.2121C20.0273 24.697 19.8499 24.6235 19.7193 24.4929L15.5374 20.311C15.2652 20.0388 15.2652 19.5976 15.5374 19.3253L19.7193 15.1435C19.8499 15.0128 20.0273 14.9394 20.2121 14.9394H27.4843ZM27.1818 23.303V16.3333H20.5009L17.016 19.8182L20.5009 23.303H27.1818ZM44.6061 24V20.5152H36.9394C36.5545 20.5152 36.2424 20.2031 36.2424 19.8182C36.2424 19.4333 36.5545 19.1212 36.9394 19.1212H44.6061V15.6364H39.7273C39.3424 15.6364 39.0303 15.3243 39.0303 14.9394C39.0303 14.5545 39.3424 14.2424 39.7273 14.2424H44.6061V9.36364H32.4549L28.5755 15.8293V23.8074L32.4549 30.273H44.6061V25.3943H39.7273C39.3424 25.3943 39.0303 25.0822 39.0303 24.6973C39.0303 24.3124 39.3424 24.0003 39.7273 24.0003L44.6061 24ZM11.2583 37.2424H41.1212C41.2587 37.2424 41.3935 37.2832 41.508 37.3594L45.6898 40.1473C45.8836 40.2767 46 40.4942 46 40.7273V44.9091C46 45.294 45.6879 45.6061 45.303 45.6061H0.696969C0.312083 45.6061 0 45.294 0 44.9091V1.69697C0 1.31208 0.312083 1 0.696969 1H9.75758C10.1157 1 10.4153 1.27132 10.4511 1.62758L11.1419 8.53539L12.5187 13.3541C12.5666 13.5215 12.5498 13.7011 12.472 13.8572L10.4878 17.825L11.8351 24.5604C11.8566 24.6693 11.8522 24.7816 11.8217 24.8883L10.4931 29.5381L11.7987 32.8018C11.8438 32.915 11.8588 33.0382 11.8413 33.1593L11.2583 37.2424ZM44.6061 41.1004L40.9103 38.6364H10.4547C10.0306 38.6364 9.70484 38.2608 9.76489 37.8408L10.4354 33.1465L9.11053 29.8346C9.05328 29.6912 9.04519 29.5328 9.08751 29.3844L10.4351 24.668L9.07413 17.8638C9.04395 17.712 9.0651 17.5542 9.13418 17.4155L11.104 13.4764L9.78447 8.85803L9.12702 2.39398H1.39408V44.2122H44.6062L44.6061 41.1004ZM18.9353 6.88593C19.1487 6.56576 19.5815 6.47926 19.902 6.69271C20.2222 6.90615 20.3087 7.33896 20.0953 7.65946L17.3074 11.8413C17.0939 12.1614 16.6611 12.248 16.3406 12.0345C16.0205 11.8211 15.9339 11.3882 16.1474 11.0677L18.9353 6.88593ZM16.1474 28.5685C15.9339 28.248 16.0204 27.8152 16.3406 27.6017C16.6611 27.3883 17.0939 27.4747 17.3074 27.7949L20.0953 31.9767C20.3087 32.2972 20.2222 32.73 19.902 32.9435C19.5816 33.1569 19.1487 33.0705 18.9353 32.7503L16.1474 28.5685Z" fill="#ED2266"/>
</svg>
