<svg width="47" height="46" viewBox="0 0 47 46" fill="none" xmlns="http://www.w3.org/2000/svg">
<path d="M42.4763 0H10.6335C9.92966 0 9.35688 0.572784 9.35688 1.27666V5.08568H4.77666C4.07278 5.08568 3.5 5.65846 3.5 6.36234V44.7233C3.5 45.4276 4.07278 46 4.77666 46H27.8724C28.5766 46 29.1491 45.4276 29.1491 44.7233V43.9176H42.4765C43.1808 43.9176 43.7532 43.3452 43.7532 42.6409L43.7528 1.27704C43.7528 0.573158 43.1804 0.000373953 42.4762 0.000373953L42.4763 0ZM27.6168 44.468H5.03172V6.61768H27.6168V44.468ZM35.4011 42.3852H29.1489V6.36234C29.1489 5.65846 28.5765 5.08568 27.8722 5.08568H10.889V1.53172H35.4009L35.4011 42.3852ZM42.2211 42.3852H36.9328V1.532H42.2211V42.3852ZM7.32716 11.5866C7.02795 11.2878 7.02795 10.8026 7.32716 10.5034L9.19975 8.63079C9.49897 8.33158 9.98378 8.33158 10.283 8.63079C10.5822 8.92965 10.5822 9.41482 10.283 9.71404L8.41041 11.5866C8.26081 11.7362 8.06488 11.811 7.86897 11.811C7.67306 11.811 7.47677 11.7362 7.32716 11.5866ZM14.2259 12.6592C14.5251 12.9581 14.5251 13.4432 14.2259 13.7425L12.3533 15.6151C12.2037 15.7647 12.0078 15.8395 11.8119 15.8395C11.6159 15.8395 11.42 15.7647 11.2704 15.6151C10.9712 15.3162 10.9712 14.831 11.2704 14.5318L13.143 12.6592C13.4419 12.36 13.9267 12.36 14.2259 12.6592ZM6.78887 16.1102C6.48965 15.8114 6.48965 15.3262 6.78887 15.027L13.6808 8.13499C13.9801 7.83578 14.4649 7.83578 14.7641 8.13499C15.0633 8.43385 15.0633 8.91902 14.7641 9.21824L7.87212 16.1102C7.72251 16.2598 7.52659 16.3346 7.33067 16.3346C7.13441 16.3346 6.93847 16.2598 6.78887 16.1102ZM18.4229 38.4263C18.1237 38.1271 18.1237 37.6423 18.4229 37.343L20.2955 35.4704C20.5947 35.1712 21.0795 35.1712 21.3788 35.4704C21.678 35.7697 21.678 36.2545 21.3788 36.5537L19.5062 38.4263C19.3566 38.5759 19.1606 38.6507 18.9647 38.6507C18.7688 38.6507 18.5725 38.5759 18.4229 38.4263ZM25.3216 39.4989C25.6209 39.7981 25.6209 40.2829 25.3216 40.5821L23.449 42.4547C23.2994 42.6043 23.1032 42.6791 22.9073 42.6791C22.7113 42.6791 22.5151 42.6043 22.3658 42.4547C22.0666 42.1555 22.0666 41.6707 22.3658 41.3715L24.2388 39.4989C24.538 39.1997 25.0224 39.1997 25.3216 39.4989ZM17.8846 42.9499C17.5854 42.6507 17.5854 42.1658 17.8846 41.8666L24.7766 34.9746C25.0758 34.6754 25.5606 34.6754 25.8598 34.9746C26.1591 35.2739 26.1591 35.7587 25.8598 36.0579L18.9679 42.9499C18.8183 43.0995 18.6223 43.1743 18.4264 43.1743C18.2302 43.1743 18.0342 43.0995 17.8846 42.9499Z" fill="#ED2266"/>
</svg>
