<svg width="46" height="46" viewBox="0 0 46 46" fill="none" xmlns="http://www.w3.org/2000/svg">
<path d="M0 0V46H46V0H0ZM44.4138 11.1034H23.7931V1.58621H44.4138V11.1034ZM31.7241 12.6897V22.2069H14.2759V12.6897H31.7241ZM12.6897 22.2069H1.58621V12.6897H12.6897V22.2069ZM22.2069 23.7931V33.3103H1.58621V23.7931H22.2069ZM31.7241 34.8966V44.4138H14.2759V34.8966H31.7241ZM23.7931 33.3103V23.7931H44.4138V33.3103H23.7931ZM33.3103 22.2069V12.6897H44.4138V22.2069H33.3103ZM22.2069 1.58621V11.1034H1.58621V1.58621H22.2069ZM1.58621 34.8966H12.6897V44.4138H1.58621V34.8966ZM33.3103 44.4138V34.8966H44.4138V44.4138H33.3103Z" fill="#ED2266"/>
</svg>
