<svg width="6" height="10" viewBox="0 0 6 10" fill="none" xmlns="http://www.w3.org/2000/svg">
<path d="M0.851445 9.82862C0.652853 9.82894 0.460393 9.77193 0.307477 9.66748C0.221413 9.60867 0.150271 9.53644 0.0981246 9.45493C0.0459785 9.37342 0.0138536 9.28423 0.0035897 9.19247C-0.00667418 9.10071 0.00512483 9.00818 0.0383107 8.92019C0.0714965 8.83219 0.125416 8.75046 0.196984 8.67966L4.00476 4.92455L0.332976 1.16243C0.262375 1.09077 0.209651 1.00831 0.177836 0.919803C0.146021 0.831292 0.135741 0.738471 0.147589 0.646675C0.159437 0.554879 0.193177 0.465918 0.246871 0.384905C0.300566 0.303892 0.373156 0.232425 0.460468 0.174611C0.548409 0.110833 0.651394 0.0627254 0.76296 0.0333086C0.874526 0.00389191 0.992266 -0.00619905 1.10879 0.00366856C1.22531 0.0135362 1.3381 0.0431495 1.44008 0.0906502C1.54206 0.138151 1.63102 0.202513 1.70139 0.279698L5.80665 4.48318C5.93166 4.60854 6 4.76578 6 4.92805C6 5.09032 5.93166 5.24757 5.80665 5.37292L1.5569 9.57641C1.47164 9.66119 1.36333 9.72821 1.24075 9.77203C1.11818 9.81585 0.984807 9.83524 0.851445 9.82862Z" fill="black"/>
</svg>
