<svg width="26" height="26" viewBox="0 0 26 26" fill="none" xmlns="http://www.w3.org/2000/svg">
<path d="M13 25.5C19.9035 25.5 25.5 19.9035 25.5 13C25.5 6.09644 19.9035 0.5 13 0.5C6.09644 0.5 0.5 6.09644 0.5 13C0.5 19.9035 6.09644 25.5 13 25.5Z" fill="#0077FF"/>
<path fill-rule="evenodd" clip-rule="evenodd" d="M12.8396 16.9282H13.6778C13.6778 16.9282 13.9223 16.8932 14.062 16.7535C14.1843 16.6313 14.1843 16.3868 14.1843 16.3868C14.1843 16.3868 14.1668 15.2692 14.6907 15.0946C15.1971 14.9374 15.8607 16.1773 16.5592 16.6488C17.0831 17.0155 17.4848 16.9282 17.4848 16.9282L19.3533 16.9107C19.3533 16.9107 20.3312 16.8583 19.8597 16.0899C19.8248 16.0201 19.5978 15.5137 18.4801 14.4834C17.3101 13.4007 17.4673 13.5753 18.8818 11.6893C19.7375 10.5542 20.0867 9.85568 19.9819 9.54135C19.8772 9.26194 19.2485 9.3318 19.2485 9.3318L17.153 9.34926C17.153 9.34926 16.9958 9.3318 16.8736 9.40165C16.7338 9.48896 16.664 9.64613 16.664 9.64613C16.664 9.64613 16.3322 10.5367 15.8956 11.2876C14.9526 12.8768 14.5859 12.9641 14.4287 12.8593C14.0795 12.6323 14.1668 11.9338 14.1668 11.4448C14.1668 9.90807 14.3938 9.26194 13.7128 9.10478C13.4858 9.05239 13.3111 9.01746 12.7348 9C11.9839 9 11.3553 9 10.9886 9.17463C10.7441 9.29687 10.5695 9.55881 10.6742 9.55881C10.8139 9.57628 11.1283 9.64613 11.2854 9.87315C11.495 10.17 11.495 10.8161 11.495 10.8161C11.495 10.8161 11.6172 12.6323 11.1981 12.8593C10.9187 13.0165 10.5345 12.7021 9.69631 11.2527C9.2772 10.5193 8.94541 9.69852 8.94541 9.69852C8.94541 9.69852 8.87555 9.54135 8.77078 9.4715C8.68346 9.40165 8.50883 9.34926 8.31674 9.34926L6.44821 9.36672C6.44821 9.36672 6.15134 9.36672 6.04657 9.50642C5.94179 9.62866 6.04657 9.85568 6.04657 9.85568C6.04657 9.85568 7.61823 13.5054 9.38198 15.339C11.006 17.0504 12.8396 16.9282 12.8396 16.9282V16.9282Z" fill="white"/>
</svg>
