<svg width="26" height="26" viewBox="0 0 26 26" fill="none" xmlns="http://www.w3.org/2000/svg">
<path d="M13 25.5C19.9035 25.5 25.5 19.9035 25.5 13C25.5 6.09644 19.9035 0.5 13 0.5C6.09644 0.5 0.5 6.09644 0.5 13C0.5 19.9035 6.09644 25.5 13 25.5Z" fill="#55A5DB"/>
<path d="M17.7688 7.90613C17.7688 7.90613 19.0693 7.40036 18.9609 8.62867C18.9248 9.13446 18.5997 10.9047 18.3468 12.8194L17.4798 18.4914C17.4798 18.4914 17.4076 19.3224 16.7572 19.4669C16.1069 19.6114 15.1316 18.961 14.9508 18.8165C14.8063 18.7081 12.2413 17.0825 11.3382 16.2876C11.0853 16.0709 10.7962 15.6374 11.3743 15.1316L15.1677 11.5189C15.6012 11.0854 16.0347 10.0738 14.2283 11.3021L9.17053 14.7341C9.17053 14.7341 8.59249 15.0955 7.50868 14.7702L5.1604 14.0477C5.1604 14.0477 4.29335 13.5059 5.77457 12.964C9.38729 11.266 13.8309 9.53186 17.7688 7.90613Z" fill="white"/>
</svg>
