<svg width="26" height="26" viewBox="0 0 26 26" fill="none" xmlns="http://www.w3.org/2000/svg">
<path d="M22.678 2.93831C22.0229 2.36509 19.3757 0.542705 13.4792 0.517943C13.4792 0.517943 6.52585 0.120306 3.13616 3.06884C1.24926 4.85861 0.585487 7.47742 0.515474 10.7242C0.445462 13.9709 0.354875 20.0556 6.5397 21.7054H6.54564L6.54167 24.2229C6.54167 24.2229 6.50212 25.2422 7.2098 25.4501C8.06584 25.7022 8.56821 24.9274 9.38547 24.0924C9.83405 23.6341 10.4535 22.9607 10.9202 22.4459C15.1502 22.7836 18.4034 22.0119 18.7729 21.8979C19.6269 21.6353 24.4596 21.0478 25.2458 14.9639C26.057 8.69284 24.8532 4.72619 22.678 2.93831ZM23.3947 14.5142C22.7314 19.5942 18.8116 19.9134 18.0889 20.1333C17.7816 20.2271 14.9244 20.9012 11.3312 20.6787C11.3312 20.6787 8.65405 23.7417 7.8178 24.5381C7.68726 24.6627 7.53379 24.7129 7.43132 24.6882C7.28734 24.6548 7.24777 24.4931 7.24936 24.2567C7.25174 23.9191 7.27231 20.0733 7.27231 20.0733C2.04042 18.6958 2.34541 13.5171 2.40475 10.8052C2.46409 8.09338 3.00127 5.87184 4.59702 4.37769C7.46416 1.91494 13.3705 2.28294 13.3705 2.28294C18.3584 2.30358 20.7484 3.72796 21.3026 4.20513C23.1427 5.69928 24.0804 9.27468 23.3947 14.5127V14.5142Z" fill="#6DCA75"/>
<path d="M23.3947 14.5142C22.7314 19.5942 18.8116 19.9134 18.0889 20.1333C17.7816 20.2271 14.9244 20.9012 11.3312 20.6787C11.3312 20.6787 8.65405 23.7417 7.8178 24.5381C7.68726 24.6627 7.53379 24.7129 7.43132 24.6882C7.28734 24.6548 7.24777 24.4931 7.24936 24.2567C7.25174 23.9191 7.27231 20.0733 7.27231 20.0733C2.04042 18.6958 2.34541 13.5171 2.40475 10.8052C2.46409 8.09338 3.00127 5.87184 4.59702 4.37769C7.46416 1.91494 13.3705 2.28294 13.3705 2.28294C18.3584 2.30358 20.7484 3.72796 21.3026 4.20513C23.1427 5.69928 24.0804 9.27468 23.3947 14.5127V14.5142Z" fill="#6DCA75"/>
<path d="M15.9063 10.8987C15.8208 10.8987 15.7387 10.8675 15.6768 10.8117C15.6148 10.7558 15.578 10.6795 15.5737 10.5985C15.5171 9.52531 14.9838 8.99975 13.8957 8.94422C13.809 8.93769 13.7283 8.89929 13.6711 8.8372C13.6138 8.77511 13.5845 8.69427 13.5891 8.61191C13.5938 8.52955 13.6322 8.45219 13.6962 8.39632C13.7602 8.34045 13.8447 8.31051 13.9317 8.31287C15.3676 8.3879 16.1658 9.16556 16.2395 10.567C16.2416 10.6085 16.2352 10.65 16.2205 10.6892C16.2057 10.7283 16.183 10.7643 16.1536 10.795C16.1242 10.8258 16.0887 10.8508 16.0492 10.8687C16.0096 10.8864 15.9667 10.8967 15.923 10.8987H15.9063Z" fill="white"/>
<path d="M17.6177 11.4425H17.6099C17.5215 11.4405 17.4376 11.4054 17.3765 11.3448C17.3155 11.2842 17.2824 11.203 17.2844 11.1192C17.31 10.0384 16.9845 9.16325 16.289 8.44375C15.5936 7.72425 14.6462 7.33411 13.3831 7.24633C13.2949 7.24021 13.2126 7.20106 13.1547 7.1375C13.0969 7.07394 13.068 6.99118 13.0744 6.9074C13.0809 6.82363 13.1221 6.74571 13.1891 6.69081C13.2562 6.6359 13.3435 6.60849 13.4317 6.61461C14.8531 6.71326 15.9797 7.18481 16.7807 8.01573C17.5817 8.84665 17.9801 9.89776 17.9509 11.1323C17.9491 11.215 17.9132 11.2938 17.851 11.3518C17.7887 11.4098 17.705 11.4424 17.6177 11.4425Z" fill="white"/>
<path d="M19.3691 12.0916C19.2811 12.0916 19.1966 12.0585 19.1342 11.9997C19.0717 11.9409 19.0364 11.8611 19.0356 11.7776C19.0201 9.8446 18.4331 8.36809 17.2409 7.26444C16.0629 6.17655 14.5746 5.61835 12.8171 5.60635C12.7734 5.6062 12.73 5.59788 12.6896 5.58185C12.6492 5.56583 12.6125 5.5424 12.5816 5.51294C12.5194 5.45342 12.4845 5.37287 12.4849 5.28899C12.4851 5.20512 12.5206 5.1248 12.5834 5.0657C12.6461 5.00662 12.731 4.97358 12.8195 4.97388H12.8222C14.7574 4.98739 16.4006 5.6056 17.7065 6.81203C19.0122 8.01847 19.6855 9.6908 19.703 11.7739C19.7036 11.8577 19.6691 11.9384 19.6071 11.9981C19.5451 12.0577 19.4606 12.0917 19.3722 12.0924L19.3691 12.0916Z" fill="white"/>
<path d="M13.9797 14.8179C13.9797 14.8179 14.4484 14.8554 14.7008 14.5606L15.1929 13.9735C15.4303 13.6824 16.0031 13.4968 16.5641 13.793C16.9843 14.0204 17.3924 14.2675 17.7867 14.5336C18.1589 14.7931 18.9236 15.3964 18.9236 15.3964C19.2868 15.6871 19.3706 16.114 19.1234 16.5641C19.1234 16.5668 19.1214 16.5735 19.1214 16.5735C18.8491 17.0213 18.5034 17.4249 18.0973 17.7695C18.0926 17.7718 18.0926 17.774 18.0882 17.7763C17.7353 18.0559 17.3887 18.2148 17.0482 18.253C16.9981 18.2614 16.9471 18.2644 16.8963 18.262C16.7462 18.2634 16.5968 18.2416 16.4541 18.1975L16.4429 18.1821C15.9184 18.0419 15.0426 17.6908 13.5842 16.9276C12.7402 16.4914 11.9366 15.988 11.1822 15.423C10.8041 15.14 10.4434 14.8366 10.1019 14.5145L10.0655 14.4799L10.0291 14.4454L9.9927 14.4109C9.98044 14.3996 9.96856 14.388 9.9563 14.3764C9.61654 14.0525 9.29665 13.7105 8.99822 13.3519C8.40256 12.6365 7.87179 11.8746 7.41156 11.0745C6.60696 9.69099 6.2367 8.86119 6.08876 8.36302L6.07254 8.35252C6.02616 8.21712 6.00332 8.07547 6.0049 7.93312C6.00212 7.88493 6.00517 7.83659 6.014 7.78907C6.05645 7.46671 6.22431 7.13771 6.51756 6.80209C6.51994 6.79797 6.52231 6.79797 6.52469 6.79347C6.88794 6.40832 7.31365 6.08058 7.78577 5.82262C7.78577 5.82262 7.7929 5.82037 7.79566 5.82037C8.27036 5.58591 8.72052 5.66544 9.0267 6.00793C9.02907 6.01018 9.66397 6.73307 9.93652 7.08607C10.2171 7.46036 10.4777 7.84772 10.7174 8.24673C11.0299 8.77829 10.8341 9.32262 10.5271 9.54694L9.90804 10.0136C9.59554 10.2529 9.63667 10.6975 9.63667 10.6975C9.63667 10.6975 10.5536 13.9885 13.9797 14.8179Z" fill="white"/>
</svg>
