<svg width="32" height="32" viewBox="0 0 32 32" fill="none" xmlns="http://www.w3.org/2000/svg">
<circle cx="16" cy="16" r="15.5" stroke="#ACACAC"/>
<path d="M20.9512 11.0417C19.6341 9.72917 17.878 9 16.0244 9C12.1707 9 9.04878 12.1111 9.04878 15.9514C9.04878 17.1667 9.39024 18.3819 9.97561 19.4028L9 23L12.7073 22.0278C13.7317 22.5625 14.8537 22.8542 16.0244 22.8542C19.878 22.8542 23 19.7431 23 15.9028C22.9512 14.1042 22.2683 12.3542 20.9512 11.0417ZM19.3902 18.4306C19.2439 18.8194 18.561 19.2083 18.2195 19.2569C17.9268 19.3056 17.5366 19.3056 17.1463 19.2083C16.9024 19.1111 16.561 19.0139 16.1707 18.8194C14.4146 18.0903 13.2927 16.3403 13.1951 16.1944C13.0976 16.0972 12.4634 15.2708 12.4634 14.3958C12.4634 13.5208 12.9024 13.1319 13.0488 12.9375C13.1951 12.7431 13.3902 12.7431 13.5366 12.7431C13.6341 12.7431 13.7805 12.7431 13.878 12.7431C13.9756 12.7431 14.122 12.6944 14.2683 13.0347C14.4146 13.375 14.7561 14.25 14.8049 14.2986C14.8537 14.3958 14.8537 14.4931 14.8049 14.5903C14.7561 14.6875 14.7073 14.7847 14.6098 14.8819C14.5122 14.9792 14.4146 15.125 14.3659 15.1736C14.2683 15.2708 14.1707 15.3681 14.2683 15.5139C14.3659 15.7083 14.7073 16.2431 15.2439 16.7292C15.9268 17.3125 16.4634 17.5069 16.6585 17.6042C16.8537 17.7014 16.9512 17.6528 17.0488 17.5556C17.1463 17.4583 17.4878 17.0694 17.5854 16.875C17.6829 16.6806 17.8293 16.7292 17.9756 16.7778C18.122 16.8264 19 17.2639 19.1463 17.3611C19.3415 17.4583 19.439 17.5069 19.4878 17.5556C19.5366 17.7014 19.5366 18.0417 19.3902 18.4306Z" fill="#ACACAC"/>
</svg>
