<svg width="32" height="32" viewBox="0 0 32 32" fill="none" xmlns="http://www.w3.org/2000/svg">
<circle cx="16" cy="16" r="15.5" stroke="#ACACAC"/>
<path d="M16.7146 21C11.248 21 8.12992 17.2462 8 11H10.7383C10.8282 15.5846 12.847 17.5265 14.446 17.9269V11H17.0244V14.954C18.6034 14.7838 20.2623 12.982 20.822 11H23.4004C23.1895 12.0279 22.7691 13.0012 22.1655 13.8589C21.562 14.7167 20.7882 15.4405 19.8926 15.985C20.8923 16.4825 21.7753 17.1868 22.4833 18.0512C23.1913 18.9157 23.7082 19.9207 24 21H21.1618C20.8999 20.0626 20.3676 19.2234 19.6316 18.5877C18.8956 17.952 17.9886 17.5481 17.0244 17.4264V21H16.7146Z" fill="#ACACAC"/>
</svg>
